<svg width="86" height="45" viewBox="0 0 86 45" fill="none" xmlns="http://www.w3.org/2000/svg">
<mask id="path-1-outside-1_1279_11276" maskUnits="userSpaceOnUse" x="-0.0310351" y="-0.263253" width="85.6317" height="46.6557" fill="black">
<rect fill="white" x="-0.0310351" y="-0.263253" width="85.6317" height="46.6557"/>
<path d="M74.4998 12.0631C74.9597 12.1387 75.4196 12.2143 75.8795 12.2899C75.9188 12.3021 75.9574 12.318 75.9975 12.3259C76.5107 12.4236 77.025 12.5151 77.5367 12.6177C77.8758 12.6856 78.2126 12.7632 78.5485 12.8458C79.1004 12.9824 79.6418 13.1536 80.1731 13.3538C80.6704 13.5413 81.165 13.7411 81.6188 14.0145C82.072 14.2871 82.5117 14.5818 82.9484 14.8785C83.2921 15.1121 83.5722 15.4105 83.7776 15.7661C83.8553 15.8999 83.9179 16.0491 83.949 16.1982C83.9922 16.4073 84.0001 16.6233 84.0229 16.8367L83.8964 17.5799C83.6824 18.382 83.3005 19.1138 82.8943 19.8302C82.9791 20.8866 82.9682 21.9343 82.8605 22.98C82.8142 23.4293 82.7681 23.878 82.7225 24.3273C82.7101 24.4464 82.6991 24.565 82.6874 24.6841L82.4092 26.3187C82.3911 26.375 82.3691 26.4306 82.3561 26.4878C82.335 26.5811 82.326 26.6765 82.3011 26.7686C82.1424 27.3657 81.9843 27.9629 81.8186 28.5582C81.547 29.5331 81.1873 30.4776 80.7811 31.4061C80.7057 31.5791 80.6247 31.7462 80.7218 31.9361C80.7578 32.3109 80.8077 32.6849 80.8266 33.0601C80.8554 33.6472 80.8154 34.2333 80.7386 34.8158C80.6866 35.2099 80.5535 35.5755 80.3539 35.9186C80.3289 35.9617 80.2728 35.99 80.2255 36.0173C80.1863 36.0395 80.14 36.0491 80.0971 36.0657C79.9313 36.1295 79.7604 36.169 79.5822 36.1282C79.452 36.0985 79.322 36.0638 79.1962 36.0195C78.9838 35.9445 78.7741 35.8609 78.564 35.7799C78.3335 35.6917 78.1035 35.5997 77.8719 35.5138C77.654 35.4328 77.5275 35.2845 77.4416 35.0716C77.2789 34.6696 77.0995 34.2731 76.9058 33.8837C76.5525 33.1738 76.0772 32.5369 75.5994 31.9027C75.5796 31.8765 75.5501 31.857 75.5114 31.822C75.48 31.8831 75.4541 31.9311 75.4307 31.9801C75.2028 32.4626 74.9978 32.9571 74.7441 33.4258C74.3025 34.2415 73.8344 35.0439 73.37 35.8475C72.9449 36.5824 72.4858 37.2933 71.9115 37.9323C71.5245 38.3619 71.1105 38.7539 70.6119 39.06C70.3458 39.2233 70.0895 39.4017 69.8223 39.5636C69.6299 39.6798 69.4371 39.7978 69.2164 39.8641C69.1333 39.8894 69.0591 39.9396 68.9775 39.9714C68.7574 40.057 68.5397 40.1518 68.3131 40.2178C68.0513 40.2939 67.7816 40.3432 67.5157 40.4047C67.4856 40.4118 67.4557 40.4216 67.427 40.4322C67.1321 40.5443 66.8284 40.6199 66.5155 40.6685C66.4393 40.6802 66.3654 40.7056 66.2906 40.7245C66.2104 40.7445 66.1306 40.7658 66.05 40.7838C65.6822 40.8654 65.3103 40.933 64.9464 41.0299C64.5668 41.1307 64.1928 41.245 63.7926 41.2315C63.7568 41.2301 63.7197 41.2355 63.6848 41.2437C63.4098 41.3126 63.1292 41.3525 62.8499 41.4003C62.5625 41.4492 62.2753 41.4664 61.9869 41.4751C61.6311 41.486 61.2744 41.4758 60.9178 41.472C60.5928 41.4683 60.2672 41.4677 59.9422 41.4525C59.4673 41.4305 58.9908 41.4293 58.5196 41.3467C58.2449 41.2984 57.9668 41.2692 57.6924 41.2229C57.4123 41.1749 57.1361 41.104 56.8546 41.0647C56.344 40.9936 55.8583 40.8347 55.3688 40.6899C55.2813 40.6641 55.2037 40.6067 55.1171 40.5753C54.8364 40.4731 54.5424 40.4145 54.2646 40.2988C54.0574 40.2125 53.8281 40.1748 53.6077 40.1194C53.4472 40.079 53.2808 40.0574 53.1246 40.0069C52.6783 39.8628 52.2332 39.7157 51.793 39.5554C51.2755 39.3672 50.759 39.1727 50.2496 38.964C49.5204 38.6651 48.7924 38.3632 48.0755 38.0383C47.3911 37.7276 46.7183 37.3902 46.0461 37.0541C45.7193 36.8908 45.4033 36.7064 45.085 36.5285C44.6587 36.2902 44.2317 36.0524 43.8083 35.8083C43.3056 35.5179 42.8082 35.2189 42.3065 34.9261C41.6453 34.5403 40.9807 34.1589 40.3197 33.7719C39.9651 33.5638 39.6176 33.3449 39.2631 33.1362C38.7533 32.837 38.2417 32.5408 37.7284 32.2467C37.2378 31.9654 36.7466 31.6846 36.2514 31.4114C35.7963 31.1607 35.3339 30.9228 34.8763 30.6756C34.7181 30.5903 34.5577 30.5066 34.4432 30.3616C34.4194 30.3316 34.3771 30.3138 34.3409 30.2951C33.7633 29.9893 33.1867 29.681 32.6065 29.3792C31.8212 28.9698 31.0333 28.565 30.2462 28.1591C29.6245 27.8383 29.0038 27.5152 28.3803 27.1973C27.8619 26.9331 27.3414 26.6736 26.8203 26.414C26.3965 26.2035 25.9699 25.9976 25.546 25.7878C25.1045 25.5693 24.6644 25.3466 24.2229 25.1287C24.0108 25.0244 23.794 24.9289 23.5812 24.8251C23.369 24.7214 23.1622 24.6058 22.9481 24.5056C22.3336 24.216 21.7164 23.9304 21.0997 23.6455C20.74 23.4794 20.3805 23.3113 20.0161 23.1533C19.6804 23.0076 19.338 22.8781 19.0013 22.7348C18.6033 22.5655 18.2104 22.3856 17.8123 22.2176C17.5422 22.1031 17.265 22.0034 16.9939 21.8913C16.6565 21.7517 16.3228 21.6019 15.9843 21.4653C15.4829 21.2631 14.9783 21.0687 14.4747 20.8718C14.2062 20.7672 13.9378 20.6619 13.669 20.5597C13.3952 20.4555 13.1204 20.3529 12.8455 20.2517C12.6669 20.186 12.4875 20.1215 12.3067 20.0612C11.9999 19.9579 11.6909 19.8599 11.3849 19.7561C11.2484 19.7094 11.1178 19.6472 10.981 19.6024C10.5996 19.4779 10.2168 19.3589 9.83438 19.2368C9.75591 19.2118 9.67892 19.1819 9.59917 19.1605C9.29093 19.0774 8.98228 18.9967 8.67394 18.9142C8.60931 18.8965 8.54775 18.8686 8.48249 18.8546C8.20995 18.7971 7.93613 18.7432 7.66328 18.6875C7.64795 18.685 7.63272 18.6818 7.61781 18.6768C7.33235 18.5872 7.04137 18.5184 6.7448 18.4747C6.51934 18.4415 6.29598 18.3959 6.06988 18.3663C5.81036 18.3326 5.56345 18.2595 5.33137 18.1455C4.95316 17.9604 4.60108 17.7375 4.36906 17.3801C4.25876 17.2103 4.15706 17.0324 4.07611 16.8483C3.92884 16.5138 3.86052 16.1668 3.95969 15.8039C3.99917 15.6607 4.0801 15.5478 4.21239 15.4765C4.29268 15.433 4.38011 15.3977 4.46808 15.3707C4.78318 15.2747 5.10863 15.2721 5.43518 15.2901C5.68296 15.3041 5.93044 15.3237 6.17875 15.3346C6.44217 15.3454 6.70547 15.3415 6.96816 15.3567C7.43765 15.3835 7.90704 15.4148 8.37517 15.4535C8.84458 15.4924 9.31272 15.5388 9.78097 15.5883C10.4086 15.6545 11.036 15.7258 11.6634 15.7971C12.0235 15.8378 12.3821 15.8872 12.7418 15.9265C13.1634 15.9723 13.5863 16.0067 14.0086 16.0526C14.6572 16.1222 15.3049 16.1981 15.9526 16.2695C16.6106 16.342 17.2696 16.4089 17.9277 16.4852C18.4055 16.5402 18.8821 16.6064 19.359 16.6669C19.7697 16.7191 20.1803 16.7714 20.5909 16.8242C20.9295 16.8677 21.2674 16.9194 21.6063 16.9573C22.2384 17.0281 22.8724 17.0877 23.5043 17.1591C24.4499 17.2667 25.3928 17.3975 26.3433 17.4683C26.7868 17.5017 27.2277 17.5691 27.6685 17.6256C28.0476 17.6745 28.426 17.731 28.8052 17.7831C29.0714 17.8199 29.3384 17.8561 29.6051 17.8898C30.1489 17.9587 30.6919 18.0397 31.2374 18.0905C31.7889 18.141 32.3398 18.1908 32.8886 18.2651C33.0824 18.2912 33.2787 18.2992 33.4975 18.3174C33.5257 18.3258 33.5777 18.3477 33.6315 18.3559C34.2653 18.4512 34.8991 18.5465 35.5338 18.6368C35.603 18.6469 35.6779 18.635 35.7479 18.621C35.8762 18.5962 36.0025 18.5947 36.1326 18.6135C36.3877 18.6503 36.6446 18.6798 36.9014 18.7067C37.1575 18.7335 37.4147 18.7535 37.6708 18.7765C37.83 18.7905 37.9887 18.8109 38.1488 18.8194C38.5549 18.8402 38.9617 18.8536 39.3686 18.8739C39.6772 18.8896 39.986 18.9155 40.2943 18.9286C40.7526 18.9479 41.2106 18.9613 41.6692 18.9749C41.9475 18.9831 42.2257 18.988 42.5038 18.9936C42.7152 18.9977 42.9265 18.9987 43.1376 19.0041C43.3592 19.0099 43.58 19.0207 43.8016 19.0266C44.0179 19.0322 44.2346 19.0321 44.4512 19.0365C44.7914 19.044 45.1309 19.0552 45.4704 19.0625C45.7746 19.0692 46.0788 19.0721 46.3825 19.0774C46.594 19.0809 46.8053 19.0857 47.0163 19.0879C47.1349 19.0895 47.2536 19.0861 47.372 19.089C47.6499 19.0958 47.9282 19.1078 48.2063 19.1134C48.3404 19.1163 48.4748 19.1059 48.6083 19.1087C48.804 19.1122 48.9999 19.1266 49.1953 19.1281C49.453 19.1297 49.7108 19.1198 49.9689 19.1195C50.3242 19.1187 50.68 19.123 51.0353 19.1228C51.283 19.1221 51.5304 19.1149 51.7781 19.1136C52.0823 19.1126 52.3861 19.1179 52.6898 19.1156C53.1079 19.113 53.5251 19.1032 53.9432 19.1005C54.4691 19.0965 54.9957 19.097 55.5213 19.0948C55.8978 19.093 56.2744 19.0874 56.6511 19.0881C57.1258 19.0884 57.6003 19.0938 58.0746 19.0959C58.6317 19.0982 59.188 19.1011 59.7447 19.1015C60.0697 19.1014 60.3946 19.0981 60.7197 19.0942C60.9618 19.0913 61.2039 19.0807 61.4465 19.0824C61.7869 19.0848 62.127 19.0885 62.4663 19.1054C62.7182 19.1181 62.9715 19.0724 63.2227 19.1246C63.2424 19.1284 63.2638 19.1224 63.2846 19.1233C63.4754 19.1285 63.6664 19.1293 63.8567 19.1415C64.1242 19.1593 64.3905 19.1878 64.6583 19.2076C64.9611 19.23 65.2653 19.2443 65.5682 19.2699C65.8969 19.2984 66.2253 19.3326 66.5531 19.3706C66.8762 19.4084 67.1986 19.4512 67.5208 19.4984C67.7822 19.5363 68.0422 19.5828 68.3028 19.6257C68.3584 19.6348 68.4139 19.6439 68.4548 19.6507C68.5999 19.5815 68.589 19.4682 68.5955 19.3526C68.553 19.3285 68.5146 19.303 68.4734 19.2829C67.9776 19.044 67.4827 18.804 66.9852 18.5674C66.5898 18.3794 66.196 18.1891 65.7953 18.013C65.3524 17.8179 64.9039 17.6371 64.4569 17.4509C64.2148 17.3499 63.9732 17.2452 63.7278 17.152C63.2129 16.9558 62.6957 16.7657 62.1793 16.5744C61.9045 16.4725 61.6314 16.3639 61.352 16.2734C60.9072 16.1289 60.4571 15.9995 60.0103 15.8585C59.652 15.7454 59.297 15.6246 58.9397 15.5098C58.8369 15.477 58.7315 15.452 58.6267 15.4234C58.4085 15.3633 58.1904 15.3019 57.9717 15.2443C57.8574 15.2141 57.7401 15.1935 57.6256 15.1639C57.337 15.089 57.0494 15.008 56.7604 14.935C56.4758 14.8634 56.19 14.7953 55.9032 14.7329C55.4601 14.6359 55.0154 14.5443 54.5708 14.4521C54.2981 14.3952 54.0262 14.3301 53.7509 14.2887C52.9021 14.1606 52.0618 13.9785 51.2053 13.8951C50.7946 13.855 50.3866 13.7828 49.9771 13.7276C49.7267 13.6941 49.4749 13.6655 49.224 13.6351C49.2138 13.6334 49.2031 13.6342 49.1928 13.6331C48.9361 13.61 48.6797 13.5889 48.4228 13.5626C48.202 13.5404 47.9819 13.5105 47.7612 13.4877C47.6232 13.4733 47.4836 13.456 47.3449 13.4575C47.1634 13.4588 46.9847 13.448 46.8051 13.4229C46.6326 13.399 46.4562 13.3974 46.2815 13.3897C46.1219 13.3826 45.9621 13.3837 45.8026 13.376C45.5812 13.3651 45.3607 13.3492 45.1399 13.3346C45.027 13.3269 44.9137 13.3134 44.8008 13.3095C44.5123 13.2996 44.2245 13.2931 43.936 13.2865C43.5031 13.2765 43.0704 13.2608 42.6379 13.2598C41.9889 13.2576 41.3394 13.2662 40.6902 13.2691C40.4169 13.27 40.1434 13.264 39.8701 13.2687C39.5816 13.2742 39.293 13.2879 39.0043 13.2985C38.2716 13.3252 37.5396 13.3553 36.8069 13.3782C36.622 13.3842 36.436 13.3701 36.251 13.3652C36.1464 13.3627 36.0411 13.36 35.9156 13.3566C36.0218 13.4544 36.2199 13.4436 36.1861 13.6464C35.8047 13.6302 35.4542 13.5025 35.0781 13.4165C35.0047 13.4968 34.9314 13.5765 34.8509 13.664C34.7965 13.6053 34.7498 13.5518 34.6997 13.5028C34.5877 13.3932 34.4782 13.2841 34.3197 13.2319C34.1629 13.1807 34.0105 13.1155 33.8594 13.0505C33.8037 13.0267 33.7406 12.9966 33.7076 12.951C33.6566 12.8802 33.588 12.8434 33.5142 12.8064C33.2736 12.6847 33.0486 12.5406 32.8748 12.3349C32.684 12.1099 32.6593 11.8535 32.7333 11.5808C32.8031 11.3253 32.9979 11.2108 33.2426 11.1503C33.3276 11.1292 33.4129 11.1063 33.4992 11.0931C33.8564 11.039 34.2125 10.9682 34.5719 10.9393C35.7056 10.8485 36.8403 10.7744 37.9742 10.6938C40.3615 10.5242 42.7508 10.3778 45.1441 10.3086C46.7514 10.2625 48.3589 10.2189 49.9671 10.1946C51.1355 10.177 52.3051 10.1877 53.474 10.1944C54.0584 10.1981 54.6422 10.2207 55.2269 10.234C55.8267 10.2478 56.4265 10.2572 57.0266 10.2769C57.404 10.2892 57.7801 10.3204 58.1576 10.3366C58.9581 10.3707 59.7585 10.4054 60.5593 10.43C61.196 10.4499 61.8265 10.5299 62.4588 10.6033C62.746 10.6365 63.0366 10.6766 63.3242 10.6691C63.8294 10.6559 64.324 10.7359 64.8228 10.7835C65.0851 10.8081 65.3463 10.844 65.6087 10.8681C66.0876 10.913 66.5694 10.9374 67.0461 10.9986C67.9803 11.119 68.9119 11.2549 69.844 11.3915C70.6377 11.508 71.4295 11.6356 72.2227 11.7551C72.6932 11.8261 73.165 11.8896 73.636 11.9575C73.8769 11.9926 74.1172 12.0315 74.3575 12.0659C74.4018 12.0719 74.4482 12.0655 74.4937 12.0647L74.4998 12.0631Z"/>
</mask>
<path d="M74.4998 12.0631C74.9597 12.1387 75.4196 12.2143 75.8795 12.2899C75.9188 12.3021 75.9574 12.318 75.9975 12.3259C76.5107 12.4236 77.025 12.5151 77.5367 12.6177C77.8758 12.6856 78.2126 12.7632 78.5485 12.8458C79.1004 12.9824 79.6418 13.1536 80.1731 13.3538C80.6704 13.5413 81.165 13.7411 81.6188 14.0145C82.072 14.2871 82.5117 14.5818 82.9484 14.8785C83.2921 15.1121 83.5722 15.4105 83.7776 15.7661C83.8553 15.8999 83.9179 16.0491 83.949 16.1982C83.9922 16.4073 84.0001 16.6233 84.0229 16.8367L83.8964 17.5799C83.6824 18.382 83.3005 19.1138 82.8943 19.8302C82.9791 20.8866 82.9682 21.9343 82.8605 22.98C82.8142 23.4293 82.7681 23.878 82.7225 24.3273C82.7101 24.4464 82.6991 24.565 82.6874 24.6841L82.4092 26.3187C82.3911 26.375 82.3691 26.4306 82.3561 26.4878C82.335 26.5811 82.326 26.6765 82.3011 26.7686C82.1424 27.3657 81.9843 27.9629 81.8186 28.5582C81.547 29.5331 81.1873 30.4776 80.7811 31.4061C80.7057 31.5791 80.6247 31.7462 80.7218 31.9361C80.7578 32.3109 80.8077 32.6849 80.8266 33.0601C80.8554 33.6472 80.8154 34.2333 80.7386 34.8158C80.6866 35.2099 80.5535 35.5755 80.3539 35.9186C80.3289 35.9617 80.2728 35.99 80.2255 36.0173C80.1863 36.0395 80.14 36.0491 80.0971 36.0657C79.9313 36.1295 79.7604 36.169 79.5822 36.1282C79.452 36.0985 79.322 36.0638 79.1962 36.0195C78.9838 35.9445 78.7741 35.8609 78.564 35.7799C78.3335 35.6917 78.1035 35.5997 77.8719 35.5138C77.654 35.4328 77.5275 35.2845 77.4416 35.0716C77.2789 34.6696 77.0995 34.2731 76.9058 33.8837C76.5525 33.1738 76.0772 32.5369 75.5994 31.9027C75.5796 31.8765 75.5501 31.857 75.5114 31.822C75.48 31.8831 75.4541 31.9311 75.4307 31.9801C75.2028 32.4626 74.9978 32.9571 74.7441 33.4258C74.3025 34.2415 73.8344 35.0439 73.37 35.8475C72.9449 36.5824 72.4858 37.2933 71.9115 37.9323C71.5245 38.3619 71.1105 38.7539 70.6119 39.06C70.3458 39.2233 70.0895 39.4017 69.8223 39.5636C69.6299 39.6798 69.4371 39.7978 69.2164 39.8641C69.1333 39.8894 69.0591 39.9396 68.9775 39.9714C68.7574 40.057 68.5397 40.1518 68.3131 40.2178C68.0513 40.2939 67.7816 40.3432 67.5157 40.4047C67.4856 40.4118 67.4557 40.4216 67.427 40.4322C67.1321 40.5443 66.8284 40.6199 66.5155 40.6685C66.4393 40.6802 66.3654 40.7056 66.2906 40.7245C66.2104 40.7445 66.1306 40.7658 66.05 40.7838C65.6822 40.8654 65.3103 40.933 64.9464 41.0299C64.5668 41.1307 64.1928 41.245 63.7926 41.2315C63.7568 41.2301 63.7197 41.2355 63.6848 41.2437C63.4098 41.3126 63.1292 41.3525 62.8499 41.4003C62.5625 41.4492 62.2753 41.4664 61.9869 41.4751C61.6311 41.486 61.2744 41.4758 60.9178 41.472C60.5928 41.4683 60.2672 41.4677 59.9422 41.4525C59.4673 41.4305 58.9908 41.4293 58.5196 41.3467C58.2449 41.2984 57.9668 41.2692 57.6924 41.2229C57.4123 41.1749 57.1361 41.104 56.8546 41.0647C56.344 40.9936 55.8583 40.8347 55.3688 40.6899C55.2813 40.6641 55.2037 40.6067 55.1171 40.5753C54.8364 40.4731 54.5424 40.4145 54.2646 40.2988C54.0574 40.2125 53.8281 40.1748 53.6077 40.1194C53.4472 40.079 53.2808 40.0574 53.1246 40.0069C52.6783 39.8628 52.2332 39.7157 51.793 39.5554C51.2755 39.3672 50.759 39.1727 50.2496 38.964C49.5204 38.6651 48.7924 38.3632 48.0755 38.0383C47.3911 37.7276 46.7183 37.3902 46.0461 37.0541C45.7193 36.8908 45.4033 36.7064 45.085 36.5285C44.6587 36.2902 44.2317 36.0524 43.8083 35.8083C43.3056 35.5179 42.8082 35.2189 42.3065 34.9261C41.6453 34.5403 40.9807 34.1589 40.3197 33.7719C39.9651 33.5638 39.6176 33.3449 39.2631 33.1362C38.7533 32.837 38.2417 32.5408 37.7284 32.2467C37.2378 31.9654 36.7466 31.6846 36.2514 31.4114C35.7963 31.1607 35.3339 30.9228 34.8763 30.6756C34.7181 30.5903 34.5577 30.5066 34.4432 30.3616C34.4194 30.3316 34.3771 30.3138 34.3409 30.2951C33.7633 29.9893 33.1867 29.681 32.6065 29.3792C31.8212 28.9698 31.0333 28.565 30.2462 28.1591C29.6245 27.8383 29.0038 27.5152 28.3803 27.1973C27.8619 26.9331 27.3414 26.6736 26.8203 26.414C26.3965 26.2035 25.9699 25.9976 25.546 25.7878C25.1045 25.5693 24.6644 25.3466 24.2229 25.1287C24.0108 25.0244 23.794 24.9289 23.5812 24.8251C23.369 24.7214 23.1622 24.6058 22.9481 24.5056C22.3336 24.216 21.7164 23.9304 21.0997 23.6455C20.74 23.4794 20.3805 23.3113 20.0161 23.1533C19.6804 23.0076 19.338 22.8781 19.0013 22.7348C18.6033 22.5655 18.2104 22.3856 17.8123 22.2176C17.5422 22.1031 17.265 22.0034 16.9939 21.8913C16.6565 21.7517 16.3228 21.6019 15.9843 21.4653C15.4829 21.2631 14.9783 21.0687 14.4747 20.8718C14.2062 20.7672 13.9378 20.6619 13.669 20.5597C13.3952 20.4555 13.1204 20.3529 12.8455 20.2517C12.6669 20.186 12.4875 20.1215 12.3067 20.0612C11.9999 19.9579 11.6909 19.8599 11.3849 19.7561C11.2484 19.7094 11.1178 19.6472 10.981 19.6024C10.5996 19.4779 10.2168 19.3589 9.83438 19.2368C9.75591 19.2118 9.67892 19.1819 9.59917 19.1605C9.29093 19.0774 8.98228 18.9967 8.67394 18.9142C8.60931 18.8965 8.54775 18.8686 8.48249 18.8546C8.20995 18.7971 7.93613 18.7432 7.66328 18.6875C7.64795 18.685 7.63272 18.6818 7.61781 18.6768C7.33235 18.5872 7.04137 18.5184 6.7448 18.4747C6.51934 18.4415 6.29598 18.3959 6.06988 18.3663C5.81036 18.3326 5.56345 18.2595 5.33137 18.1455C4.95316 17.9604 4.60108 17.7375 4.36906 17.3801C4.25876 17.2103 4.15706 17.0324 4.07611 16.8483C3.92884 16.5138 3.86052 16.1668 3.95969 15.8039C3.99917 15.6607 4.0801 15.5478 4.21239 15.4765C4.29268 15.433 4.38011 15.3977 4.46808 15.3707C4.78318 15.2747 5.10863 15.2721 5.43518 15.2901C5.68296 15.3041 5.93044 15.3237 6.17875 15.3346C6.44217 15.3454 6.70547 15.3415 6.96816 15.3567C7.43765 15.3835 7.90704 15.4148 8.37517 15.4535C8.84458 15.4924 9.31272 15.5388 9.78097 15.5883C10.4086 15.6545 11.036 15.7258 11.6634 15.7971C12.0235 15.8378 12.3821 15.8872 12.7418 15.9265C13.1634 15.9723 13.5863 16.0067 14.0086 16.0526C14.6572 16.1222 15.3049 16.1981 15.9526 16.2695C16.6106 16.342 17.2696 16.4089 17.9277 16.4852C18.4055 16.5402 18.8821 16.6064 19.359 16.6669C19.7697 16.7191 20.1803 16.7714 20.5909 16.8242C20.9295 16.8677 21.2674 16.9194 21.6063 16.9573C22.2384 17.0281 22.8724 17.0877 23.5043 17.1591C24.4499 17.2667 25.3928 17.3975 26.3433 17.4683C26.7868 17.5017 27.2277 17.5691 27.6685 17.6256C28.0476 17.6745 28.426 17.731 28.8052 17.7831C29.0714 17.8199 29.3384 17.8561 29.6051 17.8898C30.1489 17.9587 30.6919 18.0397 31.2374 18.0905C31.7889 18.141 32.3398 18.1908 32.8886 18.2651C33.0824 18.2912 33.2787 18.2992 33.4975 18.3174C33.5257 18.3258 33.5777 18.3477 33.6315 18.3559C34.2653 18.4512 34.8991 18.5465 35.5338 18.6368C35.603 18.6469 35.6779 18.635 35.7479 18.621C35.8762 18.5962 36.0025 18.5947 36.1326 18.6135C36.3877 18.6503 36.6446 18.6798 36.9014 18.7067C37.1575 18.7335 37.4147 18.7535 37.6708 18.7765C37.83 18.7905 37.9887 18.8109 38.1488 18.8194C38.5549 18.8402 38.9617 18.8536 39.3686 18.8739C39.6772 18.8896 39.986 18.9155 40.2943 18.9286C40.7526 18.9479 41.2106 18.9613 41.6692 18.9749C41.9475 18.9831 42.2257 18.988 42.5038 18.9936C42.7152 18.9977 42.9265 18.9987 43.1376 19.0041C43.3592 19.0099 43.58 19.0207 43.8016 19.0266C44.0179 19.0322 44.2346 19.0321 44.4512 19.0365C44.7914 19.044 45.1309 19.0552 45.4704 19.0625C45.7746 19.0692 46.0788 19.0721 46.3825 19.0774C46.594 19.0809 46.8053 19.0857 47.0163 19.0879C47.1349 19.0895 47.2536 19.0861 47.372 19.089C47.6499 19.0958 47.9282 19.1078 48.2063 19.1134C48.3404 19.1163 48.4748 19.1059 48.6083 19.1087C48.804 19.1122 48.9999 19.1266 49.1953 19.1281C49.453 19.1297 49.7108 19.1198 49.9689 19.1195C50.3242 19.1187 50.68 19.123 51.0353 19.1228C51.283 19.1221 51.5304 19.1149 51.7781 19.1136C52.0823 19.1126 52.3861 19.1179 52.6898 19.1156C53.1079 19.113 53.5251 19.1032 53.9432 19.1005C54.4691 19.0965 54.9957 19.097 55.5213 19.0948C55.8978 19.093 56.2744 19.0874 56.6511 19.0881C57.1258 19.0884 57.6003 19.0938 58.0746 19.0959C58.6317 19.0982 59.188 19.1011 59.7447 19.1015C60.0697 19.1014 60.3946 19.0981 60.7197 19.0942C60.9618 19.0913 61.2039 19.0807 61.4465 19.0824C61.7869 19.0848 62.127 19.0885 62.4663 19.1054C62.7182 19.1181 62.9715 19.0724 63.2227 19.1246C63.2424 19.1284 63.2638 19.1224 63.2846 19.1233C63.4754 19.1285 63.6664 19.1293 63.8567 19.1415C64.1242 19.1593 64.3905 19.1878 64.6583 19.2076C64.9611 19.23 65.2653 19.2443 65.5682 19.2699C65.8969 19.2984 66.2253 19.3326 66.5531 19.3706C66.8762 19.4084 67.1986 19.4512 67.5208 19.4984C67.7822 19.5363 68.0422 19.5828 68.3028 19.6257C68.3584 19.6348 68.4139 19.6439 68.4548 19.6507C68.5999 19.5815 68.589 19.4682 68.5955 19.3526C68.553 19.3285 68.5146 19.303 68.4734 19.2829C67.9776 19.044 67.4827 18.804 66.9852 18.5674C66.5898 18.3794 66.196 18.1891 65.7953 18.013C65.3524 17.8179 64.9039 17.6371 64.4569 17.4509C64.2148 17.3499 63.9732 17.2452 63.7278 17.152C63.2129 16.9558 62.6957 16.7657 62.1793 16.5744C61.9045 16.4725 61.6314 16.3639 61.352 16.2734C60.9072 16.1289 60.4571 15.9995 60.0103 15.8585C59.652 15.7454 59.297 15.6246 58.9397 15.5098C58.8369 15.477 58.7315 15.452 58.6267 15.4234C58.4085 15.3633 58.1904 15.3019 57.9717 15.2443C57.8574 15.2141 57.7401 15.1935 57.6256 15.1639C57.337 15.089 57.0494 15.008 56.7604 14.935C56.4758 14.8634 56.19 14.7953 55.9032 14.7329C55.4601 14.6359 55.0154 14.5443 54.5708 14.4521C54.2981 14.3952 54.0262 14.3301 53.7509 14.2887C52.9021 14.1606 52.0618 13.9785 51.2053 13.8951C50.7946 13.855 50.3866 13.7828 49.9771 13.7276C49.7267 13.6941 49.4749 13.6655 49.224 13.6351C49.2138 13.6334 49.2031 13.6342 49.1928 13.6331C48.9361 13.61 48.6797 13.5889 48.4228 13.5626C48.202 13.5404 47.9819 13.5105 47.7612 13.4877C47.6232 13.4733 47.4836 13.456 47.3449 13.4575C47.1634 13.4588 46.9847 13.448 46.8051 13.4229C46.6326 13.399 46.4562 13.3974 46.2815 13.3897C46.1219 13.3826 45.9621 13.3837 45.8026 13.376C45.5812 13.3651 45.3607 13.3492 45.1399 13.3346C45.027 13.3269 44.9137 13.3134 44.8008 13.3095C44.5123 13.2996 44.2245 13.2931 43.936 13.2865C43.5031 13.2765 43.0704 13.2608 42.6379 13.2598C41.9889 13.2576 41.3394 13.2662 40.6902 13.2691C40.4169 13.27 40.1434 13.264 39.8701 13.2687C39.5816 13.2742 39.293 13.2879 39.0043 13.2985C38.2716 13.3252 37.5396 13.3553 36.8069 13.3782C36.622 13.3842 36.436 13.3701 36.251 13.3652C36.1464 13.3627 36.0411 13.36 35.9156 13.3566C36.0218 13.4544 36.2199 13.4436 36.1861 13.6464C35.8047 13.6302 35.4542 13.5025 35.0781 13.4165C35.0047 13.4968 34.9314 13.5765 34.8509 13.664C34.7965 13.6053 34.7498 13.5518 34.6997 13.5028C34.5877 13.3932 34.4782 13.2841 34.3197 13.2319C34.1629 13.1807 34.0105 13.1155 33.8594 13.0505C33.8037 13.0267 33.7406 12.9966 33.7076 12.951C33.6566 12.8802 33.588 12.8434 33.5142 12.8064C33.2736 12.6847 33.0486 12.5406 32.8748 12.3349C32.684 12.1099 32.6593 11.8535 32.7333 11.5808C32.8031 11.3253 32.9979 11.2108 33.2426 11.1503C33.3276 11.1292 33.4129 11.1063 33.4992 11.0931C33.8564 11.039 34.2125 10.9682 34.5719 10.9393C35.7056 10.8485 36.8403 10.7744 37.9742 10.6938C40.3615 10.5242 42.7508 10.3778 45.1441 10.3086C46.7514 10.2625 48.3589 10.2189 49.9671 10.1946C51.1355 10.177 52.3051 10.1877 53.474 10.1944C54.0584 10.1981 54.6422 10.2207 55.2269 10.234C55.8267 10.2478 56.4265 10.2572 57.0266 10.2769C57.404 10.2892 57.7801 10.3204 58.1576 10.3366C58.9581 10.3707 59.7585 10.4054 60.5593 10.43C61.196 10.4499 61.8265 10.5299 62.4588 10.6033C62.746 10.6365 63.0366 10.6766 63.3242 10.6691C63.8294 10.6559 64.324 10.7359 64.8228 10.7835C65.0851 10.8081 65.3463 10.844 65.6087 10.8681C66.0876 10.913 66.5694 10.9374 67.0461 10.9986C67.9803 11.119 68.9119 11.2549 69.844 11.3915C70.6377 11.508 71.4295 11.6356 72.2227 11.7551C72.6932 11.8261 73.165 11.8896 73.636 11.9575C73.8769 11.9926 74.1172 12.0315 74.3575 12.0659C74.4018 12.0719 74.4482 12.0655 74.4937 12.0647L74.4998 12.0631Z" fill="#D5D5D5"/>
<path d="M74.4998 12.0631C74.9597 12.1387 75.4196 12.2143 75.8795 12.2899C75.9188 12.3021 75.9574 12.318 75.9975 12.3259C76.5107 12.4236 77.025 12.5151 77.5367 12.6177C77.8758 12.6856 78.2126 12.7632 78.5485 12.8458C79.1004 12.9824 79.6418 13.1536 80.1731 13.3538C80.6704 13.5413 81.165 13.7411 81.6188 14.0145C82.072 14.2871 82.5117 14.5818 82.9484 14.8785C83.2921 15.1121 83.5722 15.4105 83.7776 15.7661C83.8553 15.8999 83.9179 16.0491 83.949 16.1982C83.9922 16.4073 84.0001 16.6233 84.0229 16.8367L83.8964 17.5799C83.6824 18.382 83.3005 19.1138 82.8943 19.8302C82.9791 20.8866 82.9682 21.9343 82.8605 22.98C82.8142 23.4293 82.7681 23.878 82.7225 24.3273C82.7101 24.4464 82.6991 24.565 82.6874 24.6841L82.4092 26.3187C82.3911 26.375 82.3691 26.4306 82.3561 26.4878C82.335 26.5811 82.326 26.6765 82.3011 26.7686C82.1424 27.3657 81.9843 27.9629 81.8186 28.5582C81.547 29.5331 81.1873 30.4776 80.7811 31.4061C80.7057 31.5791 80.6247 31.7462 80.7218 31.9361C80.7578 32.3109 80.8077 32.6849 80.8266 33.0601C80.8554 33.6472 80.8154 34.2333 80.7386 34.8158C80.6866 35.2099 80.5535 35.5755 80.3539 35.9186C80.3289 35.9617 80.2728 35.99 80.2255 36.0173C80.1863 36.0395 80.14 36.0491 80.0971 36.0657C79.9313 36.1295 79.7604 36.169 79.5822 36.1282C79.452 36.0985 79.322 36.0638 79.1962 36.0195C78.9838 35.9445 78.7741 35.8609 78.564 35.7799C78.3335 35.6917 78.1035 35.5997 77.8719 35.5138C77.654 35.4328 77.5275 35.2845 77.4416 35.0716C77.2789 34.6696 77.0995 34.2731 76.9058 33.8837C76.5525 33.1738 76.0772 32.5369 75.5994 31.9027C75.5796 31.8765 75.5501 31.857 75.5114 31.822C75.48 31.8831 75.4541 31.9311 75.4307 31.9801C75.2028 32.4626 74.9978 32.9571 74.7441 33.4258C74.3025 34.2415 73.8344 35.0439 73.37 35.8475C72.9449 36.5824 72.4858 37.2933 71.9115 37.9323C71.5245 38.3619 71.1105 38.7539 70.6119 39.06C70.3458 39.2233 70.0895 39.4017 69.8223 39.5636C69.6299 39.6798 69.4371 39.7978 69.2164 39.8641C69.1333 39.8894 69.0591 39.9396 68.9775 39.9714C68.7574 40.057 68.5397 40.1518 68.3131 40.2178C68.0513 40.2939 67.7816 40.3432 67.5157 40.4047C67.4856 40.4118 67.4557 40.4216 67.427 40.4322C67.1321 40.5443 66.8284 40.6199 66.5155 40.6685C66.4393 40.6802 66.3654 40.7056 66.2906 40.7245C66.2104 40.7445 66.1306 40.7658 66.05 40.7838C65.6822 40.8654 65.3103 40.933 64.9464 41.0299C64.5668 41.1307 64.1928 41.245 63.7926 41.2315C63.7568 41.2301 63.7197 41.2355 63.6848 41.2437C63.4098 41.3126 63.1292 41.3525 62.8499 41.4003C62.5625 41.4492 62.2753 41.4664 61.9869 41.4751C61.6311 41.486 61.2744 41.4758 60.9178 41.472C60.5928 41.4683 60.2672 41.4677 59.9422 41.4525C59.4673 41.4305 58.9908 41.4293 58.5196 41.3467C58.2449 41.2984 57.9668 41.2692 57.6924 41.2229C57.4123 41.1749 57.1361 41.104 56.8546 41.0647C56.344 40.9936 55.8583 40.8347 55.3688 40.6899C55.2813 40.6641 55.2037 40.6067 55.1171 40.5753C54.8364 40.4731 54.5424 40.4145 54.2646 40.2988C54.0574 40.2125 53.8281 40.1748 53.6077 40.1194C53.4472 40.079 53.2808 40.0574 53.1246 40.0069C52.6783 39.8628 52.2332 39.7157 51.793 39.5554C51.2755 39.3672 50.759 39.1727 50.2496 38.964C49.5204 38.6651 48.7924 38.3632 48.0755 38.0383C47.3911 37.7276 46.7183 37.3902 46.0461 37.0541C45.7193 36.8908 45.4033 36.7064 45.085 36.5285C44.6587 36.2902 44.2317 36.0524 43.8083 35.8083C43.3056 35.5179 42.8082 35.2189 42.3065 34.9261C41.6453 34.5403 40.9807 34.1589 40.3197 33.7719C39.9651 33.5638 39.6176 33.3449 39.2631 33.1362C38.7533 32.837 38.2417 32.5408 37.7284 32.2467C37.2378 31.9654 36.7466 31.6846 36.2514 31.4114C35.7963 31.1607 35.3339 30.9228 34.8763 30.6756C34.7181 30.5903 34.5577 30.5066 34.4432 30.3616C34.4194 30.3316 34.3771 30.3138 34.3409 30.2951C33.7633 29.9893 33.1867 29.681 32.6065 29.3792C31.8212 28.9698 31.0333 28.565 30.2462 28.1591C29.6245 27.8383 29.0038 27.5152 28.3803 27.1973C27.8619 26.9331 27.3414 26.6736 26.8203 26.414C26.3965 26.2035 25.9699 25.9976 25.546 25.7878C25.1045 25.5693 24.6644 25.3466 24.2229 25.1287C24.0108 25.0244 23.794 24.9289 23.5812 24.8251C23.369 24.7214 23.1622 24.6058 22.9481 24.5056C22.3336 24.216 21.7164 23.9304 21.0997 23.6455C20.74 23.4794 20.3805 23.3113 20.0161 23.1533C19.6804 23.0076 19.338 22.8781 19.0013 22.7348C18.6033 22.5655 18.2104 22.3856 17.8123 22.2176C17.5422 22.1031 17.265 22.0034 16.9939 21.8913C16.6565 21.7517 16.3228 21.6019 15.9843 21.4653C15.4829 21.2631 14.9783 21.0687 14.4747 20.8718C14.2062 20.7672 13.9378 20.6619 13.669 20.5597C13.3952 20.4555 13.1204 20.3529 12.8455 20.2517C12.6669 20.186 12.4875 20.1215 12.3067 20.0612C11.9999 19.9579 11.6909 19.8599 11.3849 19.7561C11.2484 19.7094 11.1178 19.6472 10.981 19.6024C10.5996 19.4779 10.2168 19.3589 9.83438 19.2368C9.75591 19.2118 9.67892 19.1819 9.59917 19.1605C9.29093 19.0774 8.98228 18.9967 8.67394 18.9142C8.60931 18.8965 8.54775 18.8686 8.48249 18.8546C8.20995 18.7971 7.93613 18.7432 7.66328 18.6875C7.64795 18.685 7.63272 18.6818 7.61781 18.6768C7.33235 18.5872 7.04137 18.5184 6.7448 18.4747C6.51934 18.4415 6.29598 18.3959 6.06988 18.3663C5.81036 18.3326 5.56345 18.2595 5.33137 18.1455C4.95316 17.9604 4.60108 17.7375 4.36906 17.3801C4.25876 17.2103 4.15706 17.0324 4.07611 16.8483C3.92884 16.5138 3.86052 16.1668 3.95969 15.8039C3.99917 15.6607 4.0801 15.5478 4.21239 15.4765C4.29268 15.433 4.38011 15.3977 4.46808 15.3707C4.78318 15.2747 5.10863 15.2721 5.43518 15.2901C5.68296 15.3041 5.93044 15.3237 6.17875 15.3346C6.44217 15.3454 6.70547 15.3415 6.96816 15.3567C7.43765 15.3835 7.90704 15.4148 8.37517 15.4535C8.84458 15.4924 9.31272 15.5388 9.78097 15.5883C10.4086 15.6545 11.036 15.7258 11.6634 15.7971C12.0235 15.8378 12.3821 15.8872 12.7418 15.9265C13.1634 15.9723 13.5863 16.0067 14.0086 16.0526C14.6572 16.1222 15.3049 16.1981 15.9526 16.2695C16.6106 16.342 17.2696 16.4089 17.9277 16.4852C18.4055 16.5402 18.8821 16.6064 19.359 16.6669C19.7697 16.7191 20.1803 16.7714 20.5909 16.8242C20.9295 16.8677 21.2674 16.9194 21.6063 16.9573C22.2384 17.0281 22.8724 17.0877 23.5043 17.1591C24.4499 17.2667 25.3928 17.3975 26.3433 17.4683C26.7868 17.5017 27.2277 17.5691 27.6685 17.6256C28.0476 17.6745 28.426 17.731 28.8052 17.7831C29.0714 17.8199 29.3384 17.8561 29.6051 17.8898C30.1489 17.9587 30.6919 18.0397 31.2374 18.0905C31.7889 18.141 32.3398 18.1908 32.8886 18.2651C33.0824 18.2912 33.2787 18.2992 33.4975 18.3174C33.5257 18.3258 33.5777 18.3477 33.6315 18.3559C34.2653 18.4512 34.8991 18.5465 35.5338 18.6368C35.603 18.6469 35.6779 18.635 35.7479 18.621C35.8762 18.5962 36.0025 18.5947 36.1326 18.6135C36.3877 18.6503 36.6446 18.6798 36.9014 18.7067C37.1575 18.7335 37.4147 18.7535 37.6708 18.7765C37.83 18.7905 37.9887 18.8109 38.1488 18.8194C38.5549 18.8402 38.9617 18.8536 39.3686 18.8739C39.6772 18.8896 39.986 18.9155 40.2943 18.9286C40.7526 18.9479 41.2106 18.9613 41.6692 18.9749C41.9475 18.9831 42.2257 18.988 42.5038 18.9936C42.7152 18.9977 42.9265 18.9987 43.1376 19.0041C43.3592 19.0099 43.58 19.0207 43.8016 19.0266C44.0179 19.0322 44.2346 19.0321 44.4512 19.0365C44.7914 19.044 45.1309 19.0552 45.4704 19.0625C45.7746 19.0692 46.0788 19.0721 46.3825 19.0774C46.594 19.0809 46.8053 19.0857 47.0163 19.0879C47.1349 19.0895 47.2536 19.0861 47.372 19.089C47.6499 19.0958 47.9282 19.1078 48.2063 19.1134C48.3404 19.1163 48.4748 19.1059 48.6083 19.1087C48.804 19.1122 48.9999 19.1266 49.1953 19.1281C49.453 19.1297 49.7108 19.1198 49.9689 19.1195C50.3242 19.1187 50.68 19.123 51.0353 19.1228C51.283 19.1221 51.5304 19.1149 51.7781 19.1136C52.0823 19.1126 52.3861 19.1179 52.6898 19.1156C53.1079 19.113 53.5251 19.1032 53.9432 19.1005C54.4691 19.0965 54.9957 19.097 55.5213 19.0948C55.8978 19.093 56.2744 19.0874 56.6511 19.0881C57.1258 19.0884 57.6003 19.0938 58.0746 19.0959C58.6317 19.0982 59.188 19.1011 59.7447 19.1015C60.0697 19.1014 60.3946 19.0981 60.7197 19.0942C60.9618 19.0913 61.2039 19.0807 61.4465 19.0824C61.7869 19.0848 62.127 19.0885 62.4663 19.1054C62.7182 19.1181 62.9715 19.0724 63.2227 19.1246C63.2424 19.1284 63.2638 19.1224 63.2846 19.1233C63.4754 19.1285 63.6664 19.1293 63.8567 19.1415C64.1242 19.1593 64.3905 19.1878 64.6583 19.2076C64.9611 19.23 65.2653 19.2443 65.5682 19.2699C65.8969 19.2984 66.2253 19.3326 66.5531 19.3706C66.8762 19.4084 67.1986 19.4512 67.5208 19.4984C67.7822 19.5363 68.0422 19.5828 68.3028 19.6257C68.3584 19.6348 68.4139 19.6439 68.4548 19.6507C68.5999 19.5815 68.589 19.4682 68.5955 19.3526C68.553 19.3285 68.5146 19.303 68.4734 19.2829C67.9776 19.044 67.4827 18.804 66.9852 18.5674C66.5898 18.3794 66.196 18.1891 65.7953 18.013C65.3524 17.8179 64.9039 17.6371 64.4569 17.4509C64.2148 17.3499 63.9732 17.2452 63.7278 17.152C63.2129 16.9558 62.6957 16.7657 62.1793 16.5744C61.9045 16.4725 61.6314 16.3639 61.352 16.2734C60.9072 16.1289 60.4571 15.9995 60.0103 15.8585C59.652 15.7454 59.297 15.6246 58.9397 15.5098C58.8369 15.477 58.7315 15.452 58.6267 15.4234C58.4085 15.3633 58.1904 15.3019 57.9717 15.2443C57.8574 15.2141 57.7401 15.1935 57.6256 15.1639C57.337 15.089 57.0494 15.008 56.7604 14.935C56.4758 14.8634 56.19 14.7953 55.9032 14.7329C55.4601 14.6359 55.0154 14.5443 54.5708 14.4521C54.2981 14.3952 54.0262 14.3301 53.7509 14.2887C52.9021 14.1606 52.0618 13.9785 51.2053 13.8951C50.7946 13.855 50.3866 13.7828 49.9771 13.7276C49.7267 13.6941 49.4749 13.6655 49.224 13.6351C49.2138 13.6334 49.2031 13.6342 49.1928 13.6331C48.9361 13.61 48.6797 13.5889 48.4228 13.5626C48.202 13.5404 47.9819 13.5105 47.7612 13.4877C47.6232 13.4733 47.4836 13.456 47.3449 13.4575C47.1634 13.4588 46.9847 13.448 46.8051 13.4229C46.6326 13.399 46.4562 13.3974 46.2815 13.3897C46.1219 13.3826 45.9621 13.3837 45.8026 13.376C45.5812 13.3651 45.3607 13.3492 45.1399 13.3346C45.027 13.3269 44.9137 13.3134 44.8008 13.3095C44.5123 13.2996 44.2245 13.2931 43.936 13.2865C43.5031 13.2765 43.0704 13.2608 42.6379 13.2598C41.9889 13.2576 41.3394 13.2662 40.6902 13.2691C40.4169 13.27 40.1434 13.264 39.8701 13.2687C39.5816 13.2742 39.293 13.2879 39.0043 13.2985C38.2716 13.3252 37.5396 13.3553 36.8069 13.3782C36.622 13.3842 36.436 13.3701 36.251 13.3652C36.1464 13.3627 36.0411 13.36 35.9156 13.3566C36.0218 13.4544 36.2199 13.4436 36.1861 13.6464C35.8047 13.6302 35.4542 13.5025 35.0781 13.4165C35.0047 13.4968 34.9314 13.5765 34.8509 13.664C34.7965 13.6053 34.7498 13.5518 34.6997 13.5028C34.5877 13.3932 34.4782 13.2841 34.3197 13.2319C34.1629 13.1807 34.0105 13.1155 33.8594 13.0505C33.8037 13.0267 33.7406 12.9966 33.7076 12.951C33.6566 12.8802 33.588 12.8434 33.5142 12.8064C33.2736 12.6847 33.0486 12.5406 32.8748 12.3349C32.684 12.1099 32.6593 11.8535 32.7333 11.5808C32.8031 11.3253 32.9979 11.2108 33.2426 11.1503C33.3276 11.1292 33.4129 11.1063 33.4992 11.0931C33.8564 11.039 34.2125 10.9682 34.5719 10.9393C35.7056 10.8485 36.8403 10.7744 37.9742 10.6938C40.3615 10.5242 42.7508 10.3778 45.1441 10.3086C46.7514 10.2625 48.3589 10.2189 49.9671 10.1946C51.1355 10.177 52.3051 10.1877 53.474 10.1944C54.0584 10.1981 54.6422 10.2207 55.2269 10.234C55.8267 10.2478 56.4265 10.2572 57.0266 10.2769C57.404 10.2892 57.7801 10.3204 58.1576 10.3366C58.9581 10.3707 59.7585 10.4054 60.5593 10.43C61.196 10.4499 61.8265 10.5299 62.4588 10.6033C62.746 10.6365 63.0366 10.6766 63.3242 10.6691C63.8294 10.6559 64.324 10.7359 64.8228 10.7835C65.0851 10.8081 65.3463 10.844 65.6087 10.8681C66.0876 10.913 66.5694 10.9374 67.0461 10.9986C67.9803 11.119 68.9119 11.2549 69.844 11.3915C70.6377 11.508 71.4295 11.6356 72.2227 11.7551C72.6932 11.8261 73.165 11.8896 73.636 11.9575C73.8769 11.9926 74.1172 12.0315 74.3575 12.0659C74.4018 12.0719 74.4482 12.0655 74.4937 12.0647L74.4998 12.0631Z" stroke="#D5D5D5" stroke-width="1.51908" mask="url(#path-1-outside-1_1279_11276)"/>
</svg>
