<svg width="26" height="12" viewBox="0 0 26 12" fill="none" xmlns="http://www.w3.org/2000/svg">
<mask id="path-1-outside-1_1279_11867" maskUnits="userSpaceOnUse" x="-1.01632" y="-0.789516" width="26.6677" height="12.516" fill="black">
<rect fill="white" x="-1.01632" y="-0.789516" width="26.6677" height="12.516"/>
<path d="M21.8613 1.52663C22.0049 1.53515 22.1484 1.54366 22.292 1.55217C22.3044 1.55466 22.3168 1.55831 22.3293 1.55944C22.49 1.57305 22.6508 1.58472 22.8111 1.59987C22.9174 1.60986 23.0232 1.62294 23.1289 1.63757C23.3027 1.66187 23.4744 1.69712 23.6438 1.74158C23.8025 1.78325 23.9606 1.82878 24.1087 1.89821C24.2565 1.96742 24.4008 2.04382 24.5444 2.12094C24.6573 2.18168 24.7528 2.26431 24.8272 2.36688C24.8553 2.40548 24.8793 2.44927 24.8936 2.49405C24.9136 2.55685 24.9229 2.6229 24.9367 2.68767L24.9216 2.91983C24.8815 3.17286 24.7877 3.40967 24.6859 3.64252C24.7457 3.96405 24.7758 4.28597 24.7761 4.6104C24.7763 4.74977 24.7764 4.88895 24.7768 5.02833C24.7768 5.06527 24.7772 5.10203 24.7774 5.13897L24.7442 5.64956C24.7405 5.66741 24.7355 5.68519 24.7333 5.70314C24.7298 5.73248 24.7301 5.76204 24.7254 5.79111C24.6958 5.97945 24.6663 6.1678 24.6345 6.35581C24.5822 6.66371 24.502 6.96508 24.407 7.26306C24.3894 7.31857 24.3699 7.37242 24.4057 7.42761C24.4287 7.54152 24.456 7.65471 24.4738 7.76927C24.5014 7.94857 24.5078 8.12971 24.5028 8.31096C24.4995 8.4336 24.4703 8.55005 24.42 8.66175C24.4137 8.67576 24.3974 8.68626 24.3837 8.69614C24.3724 8.70421 24.3585 8.70864 24.3459 8.71508C24.297 8.73998 24.2458 8.75755 24.1898 8.75073C24.1489 8.74577 24.1079 8.73926 24.0679 8.72969C24.0003 8.71344 23.9332 8.6945 23.8662 8.67633C23.7926 8.65661 23.7191 8.63573 23.6453 8.61678C23.5758 8.59885 23.5322 8.5574 23.499 8.49479C23.4363 8.37658 23.3685 8.2606 23.2966 8.1473C23.1655 7.94068 22.9993 7.76036 22.8324 7.58097C22.8255 7.57356 22.8158 7.56852 22.8028 7.559C22.7951 7.57876 22.7887 7.59432 22.7831 7.61012C22.7285 7.76549 22.6814 7.92383 22.6185 8.07579C22.509 8.34025 22.391 8.60148 22.2741 8.86298C22.1671 9.10212 22.0489 9.33497 21.893 9.54945C21.788 9.69366 21.6734 9.8272 21.5301 9.93708C21.4537 9.99572 21.3807 10.0586 21.3039 10.1169C21.2485 10.1587 21.1931 10.2011 21.1275 10.2285C21.1028 10.2389 21.0816 10.2567 21.0576 10.269C20.9928 10.3023 20.929 10.3384 20.8615 10.3659C20.7836 10.3976 20.7024 10.4213 20.6228 10.4487C20.6138 10.4519 20.6049 10.4558 20.5964 10.46C20.5095 10.5038 20.4187 10.5367 20.3242 10.5616C20.3012 10.5676 20.2793 10.5778 20.2569 10.586C20.233 10.5947 20.2092 10.6038 20.185 10.6119C20.0747 10.6487 19.9627 10.6813 19.8541 10.7227C19.7408 10.7657 19.6297 10.8128 19.5064 10.8214C19.4954 10.8221 19.4842 10.8249 19.4737 10.8286C19.3915 10.8585 19.3067 10.8797 19.2225 10.9033C19.1358 10.9275 19.0482 10.9419 18.96 10.9538C18.8511 10.9685 18.7413 10.9768 18.6317 10.987C18.5319 10.9963 18.4319 11.0065 18.3317 11.0122C18.1852 11.0206 18.0389 11.0354 17.8916 11.0252C17.8058 11.0191 17.7195 11.019 17.6338 11.0136C17.5463 11.0078 17.4592 10.9948 17.3716 10.9918C17.2126 10.9862 17.0584 10.953 16.9036 10.9242C16.8759 10.919 16.8502 10.9039 16.8227 10.897C16.7332 10.8746 16.6411 10.8661 16.5522 10.8394C16.4858 10.8195 16.4142 10.8153 16.3448 10.8053C16.2942 10.7981 16.2425 10.7967 16.1929 10.7862C16.0513 10.7562 15.91 10.7253 15.7698 10.6902C15.6049 10.6489 15.4402 10.6057 15.2772 10.5579C15.0438 10.4895 14.8107 10.4201 14.5803 10.3432C14.3603 10.2697 14.1431 10.1877 13.926 10.106C13.8205 10.0663 13.7176 10.0198 13.6142 9.97534C13.4757 9.91581 13.3371 9.85647 13.1994 9.79505C13.0358 9.72198 12.8736 9.64608 12.7102 9.57225C12.4949 9.47493 12.2788 9.37912 12.0635 9.28141C11.9481 9.22889 11.8344 9.17278 11.7189 9.12006C11.5529 9.04451 11.3864 8.96991 11.2195 8.89607C11.0599 8.82538 10.9002 8.75487 10.7394 8.68683C10.5918 8.62443 10.4422 8.56619 10.2939 8.50491C10.2426 8.4838 10.1907 8.46322 10.1509 8.42238C10.1427 8.41392 10.1291 8.40981 10.1174 8.40523C9.93034 8.3298 9.74353 8.25361 9.55578 8.1795C9.3017 8.07891 9.04691 7.97983 8.79236 7.88038C8.59129 7.80178 8.39047 7.72243 8.18894 7.64478C8.0214 7.58022 7.85335 7.51719 7.6851 7.45415C7.5483 7.40308 7.4108 7.35353 7.27399 7.30265C7.13151 7.24969 6.98931 7.19539 6.84682 7.14262C6.7784 7.11738 6.7088 7.09498 6.64016 7.06992C6.57173 7.04487 6.50455 7.016 6.43565 6.99209C6.23778 6.92282 6.03922 6.85487 5.84085 6.78713C5.72512 6.74761 5.60943 6.70752 5.49252 6.67065C5.38484 6.63666 5.27562 6.60783 5.16768 6.57461C5.04012 6.53536 4.91379 6.49269 4.7862 6.45383C4.69965 6.42732 4.61139 6.40556 4.52459 6.37981C4.41658 6.34775 4.30938 6.31243 4.20111 6.28132C4.04077 6.23527 3.87966 6.1917 3.7188 6.14737C3.63306 6.12382 3.54733 6.10008 3.46153 6.0773C3.37417 6.05404 3.28657 6.03135 3.19894 6.00905C3.14204 5.9946 3.0849 5.98052 3.02748 5.96779C2.93002 5.94587 2.83205 5.92568 2.7348 5.90359C2.69141 5.89363 2.64935 5.87869 2.60592 5.86931C2.48491 5.84328 2.36358 5.81898 2.24232 5.79372C2.21744 5.78855 2.19285 5.78184 2.16769 5.77782C2.07043 5.76214 1.97311 5.74724 1.87584 5.73175C1.85544 5.7284 1.83565 5.72178 1.81517 5.7196C1.72968 5.71064 1.64392 5.70283 1.55839 5.69446C1.5536 5.69417 1.54883 5.6937 1.5441 5.69264C1.45361 5.67425 1.3621 5.66241 1.26968 5.65848C1.19942 5.65548 1.1294 5.64861 1.05906 5.64677C0.978331 5.6447 0.90021 5.63016 0.825337 5.60259C0.703339 5.55784 0.588154 5.50067 0.505526 5.39838C0.466247 5.3498 0.429351 5.29843 0.398626 5.24452C0.34274 5.14654 0.310687 5.04221 0.329539 4.92768C0.337082 4.88245 0.358316 4.84522 0.396644 4.81912C0.419897 4.80319 0.445604 4.78956 0.471745 4.77847C0.565392 4.73893 0.665202 4.72775 0.766005 4.72284C0.842505 4.71921 0.919091 4.71734 0.995654 4.71275C1.07685 4.70765 1.15754 4.69805 1.23866 4.69431C1.38362 4.68755 1.52869 4.68216 1.67361 4.67909C1.81893 4.67605 1.9641 4.67533 2.1094 4.67558C2.30415 4.67586 2.499 4.6777 2.69384 4.67953C2.80567 4.68053 2.91732 4.68423 3.02898 4.68483C3.15985 4.6854 3.29075 4.68247 3.42182 4.68305C3.62315 4.68372 3.82435 4.68632 4.02544 4.68755C4.22973 4.68878 4.43414 4.68827 4.63855 4.69068C4.78697 4.69229 4.93537 4.69739 5.08368 4.70075C5.21139 4.70366 5.33911 4.70656 5.46682 4.70967C5.57214 4.71222 5.6775 4.7173 5.78274 4.7181C5.979 4.71963 6.1755 4.71768 6.37175 4.7194C6.66541 4.72224 6.95901 4.73227 7.25301 4.72366C7.39018 4.71974 7.52767 4.72634 7.66477 4.72961C7.78268 4.73252 7.90064 4.73777 8.01869 4.74166C8.10158 4.74443 8.18468 4.74703 8.26763 4.74884C8.43673 4.75265 8.60598 4.76016 8.77504 4.75833C8.94593 4.75621 9.11662 4.7539 9.28742 4.75917C9.34775 4.761 9.40825 4.7572 9.476 4.75577C9.4849 4.75747 9.50158 4.76254 9.51835 4.76334C9.71593 4.77233 9.91351 4.78133 10.1112 4.78878C10.1328 4.78967 10.1554 4.78362 10.1764 4.77709C10.215 4.76539 10.2537 4.76088 10.2943 4.76251C10.3737 4.76566 10.4535 4.76651 10.5332 4.76657C10.6127 4.76662 10.6923 4.76453 10.7716 4.76341C10.8209 4.76264 10.8703 4.76382 10.9197 4.7613C11.045 4.75474 11.1703 4.74584 11.2958 4.7391C11.391 4.73406 11.4866 4.73215 11.5817 4.72631C11.723 4.71759 11.864 4.7071 12.0052 4.69662C12.0909 4.69023 12.1764 4.68286 12.2619 4.67569C12.327 4.67022 12.3918 4.66376 12.4568 4.65867C12.525 4.65339 12.5931 4.64965 12.6613 4.64437C12.7279 4.63918 12.7944 4.63224 12.861 4.62667C12.9657 4.6181 13.0702 4.61069 13.1747 4.60212C13.2683 4.59445 13.3617 4.58561 13.4551 4.57754C13.5201 4.57187 13.5851 4.56659 13.65 4.56052C13.6864 4.55724 13.7228 4.5524 13.7592 4.54951C13.8447 4.54272 13.9305 4.53751 14.0161 4.53034C14.0573 4.52695 14.0982 4.51946 14.1393 4.51607C14.1995 4.51089 14.26 4.50904 14.3201 4.50327C14.3992 4.49552 14.478 4.48426 14.5572 4.47593C14.6663 4.46432 14.7756 4.45429 14.8847 4.44287C14.9607 4.43474 15.0364 4.42466 15.1124 4.41633C15.2057 4.40632 15.2991 4.39825 15.3923 4.38784C15.5205 4.37367 15.6483 4.35734 15.7765 4.34318C15.9378 4.32514 16.0994 4.30849 16.2607 4.29103C16.3762 4.27845 16.4916 4.26468 16.6073 4.25288C16.753 4.23781 16.8988 4.2243 17.0444 4.20981C17.2155 4.19274 17.3863 4.17585 17.5572 4.15819C17.657 4.14778 17.7566 4.13639 17.8562 4.12481C17.9304 4.11618 18.0044 4.10522 18.079 4.09797C18.1835 4.08785 18.288 4.07811 18.3927 4.07246C18.4704 4.06832 18.5467 4.04621 18.6255 4.05419C18.6316 4.05475 18.638 4.05221 18.6444 4.05182C18.7032 4.04733 18.7618 4.04148 18.8206 4.03913C18.9033 4.03607 18.9859 4.0363 19.0687 4.03383C19.1624 4.03102 19.2562 4.0257 19.35 4.02388C19.4518 4.02214 19.5537 4.02216 19.6555 4.02334C19.7559 4.02463 19.8562 4.02746 19.9566 4.03167C20.0381 4.03495 20.1194 4.04093 20.2007 4.04576C20.2181 4.04679 20.2354 4.04781 20.2482 4.04857C20.2905 4.0227 20.2835 3.98827 20.2818 3.9526C20.268 3.94654 20.2554 3.93996 20.2421 3.93509C20.0823 3.8776 19.9228 3.81974 19.7625 3.763C19.6351 3.71794 19.5082 3.67212 19.3796 3.63086C19.2374 3.58511 19.094 3.54395 18.9508 3.50106C18.8733 3.4778 18.7958 3.45338 18.7175 3.4326C18.5532 3.38885 18.3884 3.347 18.2238 3.30478C18.1362 3.28228 18.0489 3.25767 17.9602 3.23881C17.8191 3.20867 17.6768 3.18332 17.5352 3.15432C17.4216 3.13106 17.3088 3.10532 17.1954 3.08149C17.1628 3.0747 17.1297 3.0704 17.0966 3.06494C17.0277 3.05347 16.9588 3.04161 16.8898 3.03091C16.8538 3.02527 16.8171 3.02271 16.781 3.01727C16.69 3.00351 16.5992 2.98782 16.5082 2.97465C16.4185 2.96176 16.3286 2.95001 16.2386 2.94001C16.0995 2.92437 15.9601 2.91047 15.8207 2.89637C15.7352 2.8876 15.6496 2.87631 15.5638 2.87239C15.2992 2.86019 15.0354 2.83114 14.7699 2.83289C14.6425 2.83369 14.515 2.82458 14.3876 2.82071C14.3097 2.81842 14.2314 2.81767 14.1535 2.81635C14.1503 2.81616 14.147 2.81675 14.1438 2.81675C14.0643 2.81787 13.9849 2.81957 13.9052 2.81971C13.8368 2.81992 13.7682 2.8178 13.6998 2.81783C13.6569 2.81781 13.6136 2.81699 13.571 2.82185C13.5154 2.82808 13.4602 2.83044 13.4042 2.82848C13.3505 2.82666 13.2963 2.8318 13.2425 2.83502C13.1932 2.83793 13.1443 2.84339 13.095 2.84611C13.0267 2.84983 12.9585 2.85201 12.8903 2.85457C12.8554 2.8558 12.8202 2.85527 12.7854 2.85768C12.6965 2.86387 12.608 2.87106 12.5193 2.87824C12.3861 2.889 12.2528 2.89801 12.12 2.91151C11.9207 2.93157 11.7216 2.95495 11.5224 2.97657C11.4386 2.98559 11.3545 2.99246 11.2707 3.00265C11.1824 3.01354 11.0942 3.02698 11.0059 3.03943C10.7819 3.07104 10.5582 3.10365 10.334 3.13409C10.2775 3.14181 10.2199 3.14345 10.163 3.14785C10.1308 3.15041 10.0984 3.15296 10.0598 3.15592C10.0955 3.18253 10.1559 3.1729 10.152 3.23623C10.0345 3.24344 9.92278 3.21544 9.80462 3.20105C9.78465 3.22805 9.76469 3.25485 9.74276 3.28426C9.7242 3.268 9.70816 3.25305 9.69122 3.23961C9.65334 3.20957 9.61626 3.17957 9.56592 3.16862C9.51618 3.15789 9.46732 3.14275 9.41886 3.12763C9.40101 3.1221 9.38066 3.11487 9.36909 3.10194C9.35118 3.08183 9.32895 3.07274 9.30511 3.06374C9.22738 3.03406 9.15372 2.99704 9.09381 2.93945C9.02804 2.87646 9.01228 2.79855 9.02628 2.7125C9.03953 2.63184 9.09567 2.59047 9.16884 2.56409C9.19426 2.55491 9.21971 2.54515 9.24578 2.53834C9.35369 2.51033 9.46073 2.47722 9.57014 2.45689C9.91519 2.3928 10.2611 2.33381 10.6066 2.27286C11.3339 2.14456 12.0626 2.02333 12.7949 1.92565C13.2868 1.86016 13.7788 1.79545 14.2717 1.73663C14.6297 1.69392 14.989 1.65983 15.348 1.62456C15.5275 1.60702 15.7074 1.59533 15.8873 1.58073C16.0719 1.56583 16.2563 1.54955 16.4411 1.53641C16.5573 1.52814 16.6738 1.52572 16.7901 1.51862C17.0369 1.50352 17.2837 1.48861 17.5303 1.47058C17.7264 1.45635 17.9224 1.46079 18.1189 1.46311C18.2081 1.46412 18.2985 1.46715 18.3866 1.45566C18.5412 1.43548 18.6956 1.44424 18.8502 1.44292C18.9315 1.4421 19.0128 1.44479 19.0941 1.44378C19.2426 1.44228 19.3912 1.43438 19.5395 1.43792C19.8301 1.44505 20.1203 1.45701 20.4108 1.46919C20.6581 1.47958 20.9052 1.49345 21.1525 1.50481C21.2992 1.51157 21.446 1.516 21.5928 1.52179C21.6678 1.52488 21.7428 1.52913 21.8177 1.53202C21.8315 1.53244 21.8455 1.529 21.8594 1.5273L21.8613 1.52663Z"/>
</mask>
<path d="M21.8613 1.52663C22.0049 1.53515 22.1484 1.54366 22.292 1.55217C22.3044 1.55466 22.3168 1.55831 22.3293 1.55944C22.49 1.57305 22.6508 1.58472 22.8111 1.59987C22.9174 1.60986 23.0232 1.62294 23.1289 1.63757C23.3027 1.66187 23.4744 1.69712 23.6438 1.74158C23.8025 1.78325 23.9606 1.82878 24.1087 1.89821C24.2565 1.96742 24.4008 2.04382 24.5444 2.12094C24.6573 2.18168 24.7528 2.26431 24.8272 2.36688C24.8553 2.40548 24.8793 2.44927 24.8936 2.49405C24.9136 2.55685 24.9229 2.6229 24.9367 2.68767L24.9216 2.91983C24.8815 3.17286 24.7877 3.40967 24.6859 3.64252C24.7457 3.96405 24.7758 4.28597 24.7761 4.6104C24.7763 4.74977 24.7764 4.88895 24.7768 5.02833C24.7768 5.06527 24.7772 5.10203 24.7774 5.13897L24.7442 5.64956C24.7405 5.66741 24.7355 5.68519 24.7333 5.70314C24.7298 5.73248 24.7301 5.76204 24.7254 5.79111C24.6958 5.97945 24.6663 6.1678 24.6345 6.35581C24.5822 6.66371 24.502 6.96508 24.407 7.26306C24.3894 7.31857 24.3699 7.37242 24.4057 7.42761C24.4287 7.54152 24.456 7.65471 24.4738 7.76927C24.5014 7.94857 24.5078 8.12971 24.5028 8.31096C24.4995 8.4336 24.4703 8.55005 24.42 8.66175C24.4137 8.67576 24.3974 8.68626 24.3837 8.69614C24.3724 8.70421 24.3585 8.70864 24.3459 8.71508C24.297 8.73998 24.2458 8.75755 24.1898 8.75073C24.1489 8.74577 24.1079 8.73926 24.0679 8.72969C24.0003 8.71344 23.9332 8.6945 23.8662 8.67633C23.7926 8.65661 23.7191 8.63573 23.6453 8.61678C23.5758 8.59885 23.5322 8.5574 23.499 8.49479C23.4363 8.37658 23.3685 8.2606 23.2966 8.1473C23.1655 7.94068 22.9993 7.76036 22.8324 7.58097C22.8255 7.57356 22.8158 7.56852 22.8028 7.559C22.7951 7.57876 22.7887 7.59432 22.7831 7.61012C22.7285 7.76549 22.6814 7.92383 22.6185 8.07579C22.509 8.34025 22.391 8.60148 22.2741 8.86298C22.1671 9.10212 22.0489 9.33497 21.893 9.54945C21.788 9.69366 21.6734 9.8272 21.5301 9.93708C21.4537 9.99572 21.3807 10.0586 21.3039 10.1169C21.2485 10.1587 21.1931 10.2011 21.1275 10.2285C21.1028 10.2389 21.0816 10.2567 21.0576 10.269C20.9928 10.3023 20.929 10.3384 20.8615 10.3659C20.7836 10.3976 20.7024 10.4213 20.6228 10.4487C20.6138 10.4519 20.6049 10.4558 20.5964 10.46C20.5095 10.5038 20.4187 10.5367 20.3242 10.5616C20.3012 10.5676 20.2793 10.5778 20.2569 10.586C20.233 10.5947 20.2092 10.6038 20.185 10.6119C20.0747 10.6487 19.9627 10.6813 19.8541 10.7227C19.7408 10.7657 19.6297 10.8128 19.5064 10.8214C19.4954 10.8221 19.4842 10.8249 19.4737 10.8286C19.3915 10.8585 19.3067 10.8797 19.2225 10.9033C19.1358 10.9275 19.0482 10.9419 18.96 10.9538C18.8511 10.9685 18.7413 10.9768 18.6317 10.987C18.5319 10.9963 18.4319 11.0065 18.3317 11.0122C18.1852 11.0206 18.0389 11.0354 17.8916 11.0252C17.8058 11.0191 17.7195 11.019 17.6338 11.0136C17.5463 11.0078 17.4592 10.9948 17.3716 10.9918C17.2126 10.9862 17.0584 10.953 16.9036 10.9242C16.8759 10.919 16.8502 10.9039 16.8227 10.897C16.7332 10.8746 16.6411 10.8661 16.5522 10.8394C16.4858 10.8195 16.4142 10.8153 16.3448 10.8053C16.2942 10.7981 16.2425 10.7967 16.1929 10.7862C16.0513 10.7562 15.91 10.7253 15.7698 10.6902C15.6049 10.6489 15.4402 10.6057 15.2772 10.5579C15.0438 10.4895 14.8107 10.4201 14.5803 10.3432C14.3603 10.2697 14.1431 10.1877 13.926 10.106C13.8205 10.0663 13.7176 10.0198 13.6142 9.97534C13.4757 9.91581 13.3371 9.85647 13.1994 9.79505C13.0358 9.72198 12.8736 9.64608 12.7102 9.57225C12.4949 9.47493 12.2788 9.37912 12.0635 9.28141C11.9481 9.22889 11.8344 9.17278 11.7189 9.12006C11.5529 9.04451 11.3864 8.96991 11.2195 8.89607C11.0599 8.82538 10.9002 8.75487 10.7394 8.68683C10.5918 8.62443 10.4422 8.56619 10.2939 8.50491C10.2426 8.4838 10.1907 8.46322 10.1509 8.42238C10.1427 8.41392 10.1291 8.40981 10.1174 8.40523C9.93034 8.3298 9.74353 8.25361 9.55578 8.1795C9.3017 8.07891 9.04691 7.97983 8.79236 7.88038C8.59129 7.80178 8.39047 7.72243 8.18894 7.64478C8.0214 7.58022 7.85335 7.51719 7.6851 7.45415C7.5483 7.40308 7.4108 7.35353 7.27399 7.30265C7.13151 7.24969 6.98931 7.19539 6.84682 7.14262C6.7784 7.11738 6.7088 7.09498 6.64016 7.06992C6.57173 7.04487 6.50455 7.016 6.43565 6.99209C6.23778 6.92282 6.03922 6.85487 5.84085 6.78713C5.72512 6.74761 5.60943 6.70752 5.49252 6.67065C5.38484 6.63666 5.27562 6.60783 5.16768 6.57461C5.04012 6.53536 4.91379 6.49269 4.7862 6.45383C4.69965 6.42732 4.61139 6.40556 4.52459 6.37981C4.41658 6.34775 4.30938 6.31243 4.20111 6.28132C4.04077 6.23527 3.87966 6.1917 3.7188 6.14737C3.63306 6.12382 3.54733 6.10008 3.46153 6.0773C3.37417 6.05404 3.28657 6.03135 3.19894 6.00905C3.14204 5.9946 3.0849 5.98052 3.02748 5.96779C2.93002 5.94587 2.83205 5.92568 2.7348 5.90359C2.69141 5.89363 2.64935 5.87869 2.60592 5.86931C2.48491 5.84328 2.36358 5.81898 2.24232 5.79372C2.21744 5.78855 2.19285 5.78184 2.16769 5.77782C2.07043 5.76214 1.97311 5.74724 1.87584 5.73175C1.85544 5.7284 1.83565 5.72178 1.81517 5.7196C1.72968 5.71064 1.64392 5.70283 1.55839 5.69446C1.5536 5.69417 1.54883 5.6937 1.5441 5.69264C1.45361 5.67425 1.3621 5.66241 1.26968 5.65848C1.19942 5.65548 1.1294 5.64861 1.05906 5.64677C0.978331 5.6447 0.90021 5.63016 0.825337 5.60259C0.703339 5.55784 0.588154 5.50067 0.505526 5.39838C0.466247 5.3498 0.429351 5.29843 0.398626 5.24452C0.34274 5.14654 0.310687 5.04221 0.329539 4.92768C0.337082 4.88245 0.358316 4.84522 0.396644 4.81912C0.419897 4.80319 0.445604 4.78956 0.471745 4.77847C0.565392 4.73893 0.665202 4.72775 0.766005 4.72284C0.842505 4.71921 0.919091 4.71734 0.995654 4.71275C1.07685 4.70765 1.15754 4.69805 1.23866 4.69431C1.38362 4.68755 1.52869 4.68216 1.67361 4.67909C1.81893 4.67605 1.9641 4.67533 2.1094 4.67558C2.30415 4.67586 2.499 4.6777 2.69384 4.67953C2.80567 4.68053 2.91732 4.68423 3.02898 4.68483C3.15985 4.6854 3.29075 4.68247 3.42182 4.68305C3.62315 4.68372 3.82435 4.68632 4.02544 4.68755C4.22973 4.68878 4.43414 4.68827 4.63855 4.69068C4.78697 4.69229 4.93537 4.69739 5.08368 4.70075C5.21139 4.70366 5.33911 4.70656 5.46682 4.70967C5.57214 4.71222 5.6775 4.7173 5.78274 4.7181C5.979 4.71963 6.1755 4.71768 6.37175 4.7194C6.66541 4.72224 6.95901 4.73227 7.25301 4.72366C7.39018 4.71974 7.52767 4.72634 7.66477 4.72961C7.78268 4.73252 7.90064 4.73777 8.01869 4.74166C8.10158 4.74443 8.18468 4.74703 8.26763 4.74884C8.43673 4.75265 8.60598 4.76016 8.77504 4.75833C8.94593 4.75621 9.11662 4.7539 9.28742 4.75917C9.34775 4.761 9.40825 4.7572 9.476 4.75577C9.4849 4.75747 9.50158 4.76254 9.51835 4.76334C9.71593 4.77233 9.91351 4.78133 10.1112 4.78878C10.1328 4.78967 10.1554 4.78362 10.1764 4.77709C10.215 4.76539 10.2537 4.76088 10.2943 4.76251C10.3737 4.76566 10.4535 4.76651 10.5332 4.76657C10.6127 4.76662 10.6923 4.76453 10.7716 4.76341C10.8209 4.76264 10.8703 4.76382 10.9197 4.7613C11.045 4.75474 11.1703 4.74584 11.2958 4.7391C11.391 4.73406 11.4866 4.73215 11.5817 4.72631C11.723 4.71759 11.864 4.7071 12.0052 4.69662C12.0909 4.69023 12.1764 4.68286 12.2619 4.67569C12.327 4.67022 12.3918 4.66376 12.4568 4.65867C12.525 4.65339 12.5931 4.64965 12.6613 4.64437C12.7279 4.63918 12.7944 4.63224 12.861 4.62667C12.9657 4.6181 13.0702 4.61069 13.1747 4.60212C13.2683 4.59445 13.3617 4.58561 13.4551 4.57754C13.5201 4.57187 13.5851 4.56659 13.65 4.56052C13.6864 4.55724 13.7228 4.5524 13.7592 4.54951C13.8447 4.54272 13.9305 4.53751 14.0161 4.53034C14.0573 4.52695 14.0982 4.51946 14.1393 4.51607C14.1995 4.51089 14.26 4.50904 14.3201 4.50327C14.3992 4.49552 14.478 4.48426 14.5572 4.47593C14.6663 4.46432 14.7756 4.45429 14.8847 4.44287C14.9607 4.43474 15.0364 4.42466 15.1124 4.41633C15.2057 4.40632 15.2991 4.39825 15.3923 4.38784C15.5205 4.37367 15.6483 4.35734 15.7765 4.34318C15.9378 4.32514 16.0994 4.30849 16.2607 4.29103C16.3762 4.27845 16.4916 4.26468 16.6073 4.25288C16.753 4.23781 16.8988 4.2243 17.0444 4.20981C17.2155 4.19274 17.3863 4.17585 17.5572 4.15819C17.657 4.14778 17.7566 4.13639 17.8562 4.12481C17.9304 4.11618 18.0044 4.10522 18.079 4.09797C18.1835 4.08785 18.288 4.07811 18.3927 4.07246C18.4704 4.06832 18.5467 4.04621 18.6255 4.05419C18.6316 4.05475 18.638 4.05221 18.6444 4.05182C18.7032 4.04733 18.7618 4.04148 18.8206 4.03913C18.9033 4.03607 18.9859 4.0363 19.0687 4.03383C19.1624 4.03102 19.2562 4.0257 19.35 4.02388C19.4518 4.02214 19.5537 4.02216 19.6555 4.02334C19.7559 4.02463 19.8562 4.02746 19.9566 4.03167C20.0381 4.03495 20.1194 4.04093 20.2007 4.04576C20.2181 4.04679 20.2354 4.04781 20.2482 4.04857C20.2905 4.0227 20.2835 3.98827 20.2818 3.9526C20.268 3.94654 20.2554 3.93996 20.2421 3.93509C20.0823 3.8776 19.9228 3.81974 19.7625 3.763C19.6351 3.71794 19.5082 3.67212 19.3796 3.63086C19.2374 3.58511 19.094 3.54395 18.9508 3.50106C18.8733 3.4778 18.7958 3.45338 18.7175 3.4326C18.5532 3.38885 18.3884 3.347 18.2238 3.30478C18.1362 3.28228 18.0489 3.25767 17.9602 3.23881C17.8191 3.20867 17.6768 3.18332 17.5352 3.15432C17.4216 3.13106 17.3088 3.10532 17.1954 3.08149C17.1628 3.0747 17.1297 3.0704 17.0966 3.06494C17.0277 3.05347 16.9588 3.04161 16.8898 3.03091C16.8538 3.02527 16.8171 3.02271 16.781 3.01727C16.69 3.00351 16.5992 2.98782 16.5082 2.97465C16.4185 2.96176 16.3286 2.95001 16.2386 2.94001C16.0995 2.92437 15.9601 2.91047 15.8207 2.89637C15.7352 2.8876 15.6496 2.87631 15.5638 2.87239C15.2992 2.86019 15.0354 2.83114 14.7699 2.83289C14.6425 2.83369 14.515 2.82458 14.3876 2.82071C14.3097 2.81842 14.2314 2.81767 14.1535 2.81635C14.1503 2.81616 14.147 2.81675 14.1438 2.81675C14.0643 2.81787 13.9849 2.81957 13.9052 2.81971C13.8368 2.81992 13.7682 2.8178 13.6998 2.81783C13.6569 2.81781 13.6136 2.81699 13.571 2.82185C13.5154 2.82808 13.4602 2.83044 13.4042 2.82848C13.3505 2.82666 13.2963 2.8318 13.2425 2.83502C13.1932 2.83793 13.1443 2.84339 13.095 2.84611C13.0267 2.84983 12.9585 2.85201 12.8903 2.85457C12.8554 2.8558 12.8202 2.85527 12.7854 2.85768C12.6965 2.86387 12.608 2.87106 12.5193 2.87824C12.3861 2.889 12.2528 2.89801 12.12 2.91151C11.9207 2.93157 11.7216 2.95495 11.5224 2.97657C11.4386 2.98559 11.3545 2.99246 11.2707 3.00265C11.1824 3.01354 11.0942 3.02698 11.0059 3.03943C10.7819 3.07104 10.5582 3.10365 10.334 3.13409C10.2775 3.14181 10.2199 3.14345 10.163 3.14785C10.1308 3.15041 10.0984 3.15296 10.0598 3.15592C10.0955 3.18253 10.1559 3.1729 10.152 3.23623C10.0345 3.24344 9.92278 3.21544 9.80462 3.20105C9.78465 3.22805 9.76469 3.25485 9.74276 3.28426C9.7242 3.268 9.70816 3.25305 9.69122 3.23961C9.65334 3.20957 9.61626 3.17957 9.56592 3.16862C9.51618 3.15789 9.46732 3.14275 9.41886 3.12763C9.40101 3.1221 9.38066 3.11487 9.36909 3.10194C9.35118 3.08183 9.32895 3.07274 9.30511 3.06374C9.22738 3.03406 9.15372 2.99704 9.09381 2.93945C9.02804 2.87646 9.01228 2.79855 9.02628 2.7125C9.03953 2.63184 9.09567 2.59047 9.16884 2.56409C9.19426 2.55491 9.21971 2.54515 9.24578 2.53834C9.35369 2.51033 9.46073 2.47722 9.57014 2.45689C9.91519 2.3928 10.2611 2.33381 10.6066 2.27286C11.3339 2.14456 12.0626 2.02333 12.7949 1.92565C13.2868 1.86016 13.7788 1.79545 14.2717 1.73663C14.6297 1.69392 14.989 1.65983 15.348 1.62456C15.5275 1.60702 15.7074 1.59533 15.8873 1.58073C16.0719 1.56583 16.2563 1.54955 16.4411 1.53641C16.5573 1.52814 16.6738 1.52572 16.7901 1.51862C17.0369 1.50352 17.2837 1.48861 17.5303 1.47058C17.7264 1.45635 17.9224 1.46079 18.1189 1.46311C18.2081 1.46412 18.2985 1.46715 18.3866 1.45566C18.5412 1.43548 18.6956 1.44424 18.8502 1.44292C18.9315 1.4421 19.0128 1.44479 19.0941 1.44378C19.2426 1.44228 19.3912 1.43438 19.5395 1.43792C19.8301 1.44505 20.1203 1.45701 20.4108 1.46919C20.6581 1.47958 20.9052 1.49345 21.1525 1.50481C21.2992 1.51157 21.446 1.516 21.5928 1.52179C21.6678 1.52488 21.7428 1.52913 21.8177 1.53202C21.8315 1.53244 21.8455 1.529 21.8594 1.5273L21.8613 1.52663Z" fill="#D4D4D4"/>
<path d="M21.8613 1.52663C22.0049 1.53515 22.1484 1.54366 22.292 1.55217C22.3044 1.55466 22.3168 1.55831 22.3293 1.55944C22.49 1.57305 22.6508 1.58472 22.8111 1.59987C22.9174 1.60986 23.0232 1.62294 23.1289 1.63757C23.3027 1.66187 23.4744 1.69712 23.6438 1.74158C23.8025 1.78325 23.9606 1.82878 24.1087 1.89821C24.2565 1.96742 24.4008 2.04382 24.5444 2.12094C24.6573 2.18168 24.7528 2.26431 24.8272 2.36688C24.8553 2.40548 24.8793 2.44927 24.8936 2.49405C24.9136 2.55685 24.9229 2.6229 24.9367 2.68767L24.9216 2.91983C24.8815 3.17286 24.7877 3.40967 24.6859 3.64252C24.7457 3.96405 24.7758 4.28597 24.7761 4.6104C24.7763 4.74977 24.7764 4.88895 24.7768 5.02833C24.7768 5.06527 24.7772 5.10203 24.7774 5.13897L24.7442 5.64956C24.7405 5.66741 24.7355 5.68519 24.7333 5.70314C24.7298 5.73248 24.7301 5.76204 24.7254 5.79111C24.6958 5.97945 24.6663 6.1678 24.6345 6.35581C24.5822 6.66371 24.502 6.96508 24.407 7.26306C24.3894 7.31857 24.3699 7.37242 24.4057 7.42761C24.4287 7.54152 24.456 7.65471 24.4738 7.76927C24.5014 7.94857 24.5078 8.12971 24.5028 8.31096C24.4995 8.4336 24.4703 8.55005 24.42 8.66175C24.4137 8.67576 24.3974 8.68626 24.3837 8.69614C24.3724 8.70421 24.3585 8.70864 24.3459 8.71508C24.297 8.73998 24.2458 8.75755 24.1898 8.75073C24.1489 8.74577 24.1079 8.73926 24.0679 8.72969C24.0003 8.71344 23.9332 8.6945 23.8662 8.67633C23.7926 8.65661 23.7191 8.63573 23.6453 8.61678C23.5758 8.59885 23.5322 8.5574 23.499 8.49479C23.4363 8.37658 23.3685 8.2606 23.2966 8.1473C23.1655 7.94068 22.9993 7.76036 22.8324 7.58097C22.8255 7.57356 22.8158 7.56852 22.8028 7.559C22.7951 7.57876 22.7887 7.59432 22.7831 7.61012C22.7285 7.76549 22.6814 7.92383 22.6185 8.07579C22.509 8.34025 22.391 8.60148 22.2741 8.86298C22.1671 9.10212 22.0489 9.33497 21.893 9.54945C21.788 9.69366 21.6734 9.8272 21.5301 9.93708C21.4537 9.99572 21.3807 10.0586 21.3039 10.1169C21.2485 10.1587 21.1931 10.2011 21.1275 10.2285C21.1028 10.2389 21.0816 10.2567 21.0576 10.269C20.9928 10.3023 20.929 10.3384 20.8615 10.3659C20.7836 10.3976 20.7024 10.4213 20.6228 10.4487C20.6138 10.4519 20.6049 10.4558 20.5964 10.46C20.5095 10.5038 20.4187 10.5367 20.3242 10.5616C20.3012 10.5676 20.2793 10.5778 20.2569 10.586C20.233 10.5947 20.2092 10.6038 20.185 10.6119C20.0747 10.6487 19.9627 10.6813 19.8541 10.7227C19.7408 10.7657 19.6297 10.8128 19.5064 10.8214C19.4954 10.8221 19.4842 10.8249 19.4737 10.8286C19.3915 10.8585 19.3067 10.8797 19.2225 10.9033C19.1358 10.9275 19.0482 10.9419 18.96 10.9538C18.8511 10.9685 18.7413 10.9768 18.6317 10.987C18.5319 10.9963 18.4319 11.0065 18.3317 11.0122C18.1852 11.0206 18.0389 11.0354 17.8916 11.0252C17.8058 11.0191 17.7195 11.019 17.6338 11.0136C17.5463 11.0078 17.4592 10.9948 17.3716 10.9918C17.2126 10.9862 17.0584 10.953 16.9036 10.9242C16.8759 10.919 16.8502 10.9039 16.8227 10.897C16.7332 10.8746 16.6411 10.8661 16.5522 10.8394C16.4858 10.8195 16.4142 10.8153 16.3448 10.8053C16.2942 10.7981 16.2425 10.7967 16.1929 10.7862C16.0513 10.7562 15.91 10.7253 15.7698 10.6902C15.6049 10.6489 15.4402 10.6057 15.2772 10.5579C15.0438 10.4895 14.8107 10.4201 14.5803 10.3432C14.3603 10.2697 14.1431 10.1877 13.926 10.106C13.8205 10.0663 13.7176 10.0198 13.6142 9.97534C13.4757 9.91581 13.3371 9.85647 13.1994 9.79505C13.0358 9.72198 12.8736 9.64608 12.7102 9.57225C12.4949 9.47493 12.2788 9.37912 12.0635 9.28141C11.9481 9.22889 11.8344 9.17278 11.7189 9.12006C11.5529 9.04451 11.3864 8.96991 11.2195 8.89607C11.0599 8.82538 10.9002 8.75487 10.7394 8.68683C10.5918 8.62443 10.4422 8.56619 10.2939 8.50491C10.2426 8.4838 10.1907 8.46322 10.1509 8.42238C10.1427 8.41392 10.1291 8.40981 10.1174 8.40523C9.93034 8.3298 9.74353 8.25361 9.55578 8.1795C9.3017 8.07891 9.04691 7.97983 8.79236 7.88038C8.59129 7.80178 8.39047 7.72243 8.18894 7.64478C8.0214 7.58022 7.85335 7.51719 7.6851 7.45415C7.5483 7.40308 7.4108 7.35353 7.27399 7.30265C7.13151 7.24969 6.98931 7.19539 6.84682 7.14262C6.7784 7.11738 6.7088 7.09498 6.64016 7.06992C6.57173 7.04487 6.50455 7.016 6.43565 6.99209C6.23778 6.92282 6.03922 6.85487 5.84085 6.78713C5.72512 6.74761 5.60943 6.70752 5.49252 6.67065C5.38484 6.63666 5.27562 6.60783 5.16768 6.57461C5.04012 6.53536 4.91379 6.49269 4.7862 6.45383C4.69965 6.42732 4.61139 6.40556 4.52459 6.37981C4.41658 6.34775 4.30938 6.31243 4.20111 6.28132C4.04077 6.23527 3.87966 6.1917 3.7188 6.14737C3.63306 6.12382 3.54733 6.10008 3.46153 6.0773C3.37417 6.05404 3.28657 6.03135 3.19894 6.00905C3.14204 5.9946 3.0849 5.98052 3.02748 5.96779C2.93002 5.94587 2.83205 5.92568 2.7348 5.90359C2.69141 5.89363 2.64935 5.87869 2.60592 5.86931C2.48491 5.84328 2.36358 5.81898 2.24232 5.79372C2.21744 5.78855 2.19285 5.78184 2.16769 5.77782C2.07043 5.76214 1.97311 5.74724 1.87584 5.73175C1.85544 5.7284 1.83565 5.72178 1.81517 5.7196C1.72968 5.71064 1.64392 5.70283 1.55839 5.69446C1.5536 5.69417 1.54883 5.6937 1.5441 5.69264C1.45361 5.67425 1.3621 5.66241 1.26968 5.65848C1.19942 5.65548 1.1294 5.64861 1.05906 5.64677C0.978331 5.6447 0.90021 5.63016 0.825337 5.60259C0.703339 5.55784 0.588154 5.50067 0.505526 5.39838C0.466247 5.3498 0.429351 5.29843 0.398626 5.24452C0.34274 5.14654 0.310687 5.04221 0.329539 4.92768C0.337082 4.88245 0.358316 4.84522 0.396644 4.81912C0.419897 4.80319 0.445604 4.78956 0.471745 4.77847C0.565392 4.73893 0.665202 4.72775 0.766005 4.72284C0.842505 4.71921 0.919091 4.71734 0.995654 4.71275C1.07685 4.70765 1.15754 4.69805 1.23866 4.69431C1.38362 4.68755 1.52869 4.68216 1.67361 4.67909C1.81893 4.67605 1.9641 4.67533 2.1094 4.67558C2.30415 4.67586 2.499 4.6777 2.69384 4.67953C2.80567 4.68053 2.91732 4.68423 3.02898 4.68483C3.15985 4.6854 3.29075 4.68247 3.42182 4.68305C3.62315 4.68372 3.82435 4.68632 4.02544 4.68755C4.22973 4.68878 4.43414 4.68827 4.63855 4.69068C4.78697 4.69229 4.93537 4.69739 5.08368 4.70075C5.21139 4.70366 5.33911 4.70656 5.46682 4.70967C5.57214 4.71222 5.6775 4.7173 5.78274 4.7181C5.979 4.71963 6.1755 4.71768 6.37175 4.7194C6.66541 4.72224 6.95901 4.73227 7.25301 4.72366C7.39018 4.71974 7.52767 4.72634 7.66477 4.72961C7.78268 4.73252 7.90064 4.73777 8.01869 4.74166C8.10158 4.74443 8.18468 4.74703 8.26763 4.74884C8.43673 4.75265 8.60598 4.76016 8.77504 4.75833C8.94593 4.75621 9.11662 4.7539 9.28742 4.75917C9.34775 4.761 9.40825 4.7572 9.476 4.75577C9.4849 4.75747 9.50158 4.76254 9.51835 4.76334C9.71593 4.77233 9.91351 4.78133 10.1112 4.78878C10.1328 4.78967 10.1554 4.78362 10.1764 4.77709C10.215 4.76539 10.2537 4.76088 10.2943 4.76251C10.3737 4.76566 10.4535 4.76651 10.5332 4.76657C10.6127 4.76662 10.6923 4.76453 10.7716 4.76341C10.8209 4.76264 10.8703 4.76382 10.9197 4.7613C11.045 4.75474 11.1703 4.74584 11.2958 4.7391C11.391 4.73406 11.4866 4.73215 11.5817 4.72631C11.723 4.71759 11.864 4.7071 12.0052 4.69662C12.0909 4.69023 12.1764 4.68286 12.2619 4.67569C12.327 4.67022 12.3918 4.66376 12.4568 4.65867C12.525 4.65339 12.5931 4.64965 12.6613 4.64437C12.7279 4.63918 12.7944 4.63224 12.861 4.62667C12.9657 4.6181 13.0702 4.61069 13.1747 4.60212C13.2683 4.59445 13.3617 4.58561 13.4551 4.57754C13.5201 4.57187 13.5851 4.56659 13.65 4.56052C13.6864 4.55724 13.7228 4.5524 13.7592 4.54951C13.8447 4.54272 13.9305 4.53751 14.0161 4.53034C14.0573 4.52695 14.0982 4.51946 14.1393 4.51607C14.1995 4.51089 14.26 4.50904 14.3201 4.50327C14.3992 4.49552 14.478 4.48426 14.5572 4.47593C14.6663 4.46432 14.7756 4.45429 14.8847 4.44287C14.9607 4.43474 15.0364 4.42466 15.1124 4.41633C15.2057 4.40632 15.2991 4.39825 15.3923 4.38784C15.5205 4.37367 15.6483 4.35734 15.7765 4.34318C15.9378 4.32514 16.0994 4.30849 16.2607 4.29103C16.3762 4.27845 16.4916 4.26468 16.6073 4.25288C16.753 4.23781 16.8988 4.2243 17.0444 4.20981C17.2155 4.19274 17.3863 4.17585 17.5572 4.15819C17.657 4.14778 17.7566 4.13639 17.8562 4.12481C17.9304 4.11618 18.0044 4.10522 18.079 4.09797C18.1835 4.08785 18.288 4.07811 18.3927 4.07246C18.4704 4.06832 18.5467 4.04621 18.6255 4.05419C18.6316 4.05475 18.638 4.05221 18.6444 4.05182C18.7032 4.04733 18.7618 4.04148 18.8206 4.03913C18.9033 4.03607 18.9859 4.0363 19.0687 4.03383C19.1624 4.03102 19.2562 4.0257 19.35 4.02388C19.4518 4.02214 19.5537 4.02216 19.6555 4.02334C19.7559 4.02463 19.8562 4.02746 19.9566 4.03167C20.0381 4.03495 20.1194 4.04093 20.2007 4.04576C20.2181 4.04679 20.2354 4.04781 20.2482 4.04857C20.2905 4.0227 20.2835 3.98827 20.2818 3.9526C20.268 3.94654 20.2554 3.93996 20.2421 3.93509C20.0823 3.8776 19.9228 3.81974 19.7625 3.763C19.6351 3.71794 19.5082 3.67212 19.3796 3.63086C19.2374 3.58511 19.094 3.54395 18.9508 3.50106C18.8733 3.4778 18.7958 3.45338 18.7175 3.4326C18.5532 3.38885 18.3884 3.347 18.2238 3.30478C18.1362 3.28228 18.0489 3.25767 17.9602 3.23881C17.8191 3.20867 17.6768 3.18332 17.5352 3.15432C17.4216 3.13106 17.3088 3.10532 17.1954 3.08149C17.1628 3.0747 17.1297 3.0704 17.0966 3.06494C17.0277 3.05347 16.9588 3.04161 16.8898 3.03091C16.8538 3.02527 16.8171 3.02271 16.781 3.01727C16.69 3.00351 16.5992 2.98782 16.5082 2.97465C16.4185 2.96176 16.3286 2.95001 16.2386 2.94001C16.0995 2.92437 15.9601 2.91047 15.8207 2.89637C15.7352 2.8876 15.6496 2.87631 15.5638 2.87239C15.2992 2.86019 15.0354 2.83114 14.7699 2.83289C14.6425 2.83369 14.515 2.82458 14.3876 2.82071C14.3097 2.81842 14.2314 2.81767 14.1535 2.81635C14.1503 2.81616 14.147 2.81675 14.1438 2.81675C14.0643 2.81787 13.9849 2.81957 13.9052 2.81971C13.8368 2.81992 13.7682 2.8178 13.6998 2.81783C13.6569 2.81781 13.6136 2.81699 13.571 2.82185C13.5154 2.82808 13.4602 2.83044 13.4042 2.82848C13.3505 2.82666 13.2963 2.8318 13.2425 2.83502C13.1932 2.83793 13.1443 2.84339 13.095 2.84611C13.0267 2.84983 12.9585 2.85201 12.8903 2.85457C12.8554 2.8558 12.8202 2.85527 12.7854 2.85768C12.6965 2.86387 12.608 2.87106 12.5193 2.87824C12.3861 2.889 12.2528 2.89801 12.12 2.91151C11.9207 2.93157 11.7216 2.95495 11.5224 2.97657C11.4386 2.98559 11.3545 2.99246 11.2707 3.00265C11.1824 3.01354 11.0942 3.02698 11.0059 3.03943C10.7819 3.07104 10.5582 3.10365 10.334 3.13409C10.2775 3.14181 10.2199 3.14345 10.163 3.14785C10.1308 3.15041 10.0984 3.15296 10.0598 3.15592C10.0955 3.18253 10.1559 3.1729 10.152 3.23623C10.0345 3.24344 9.92278 3.21544 9.80462 3.20105C9.78465 3.22805 9.76469 3.25485 9.74276 3.28426C9.7242 3.268 9.70816 3.25305 9.69122 3.23961C9.65334 3.20957 9.61626 3.17957 9.56592 3.16862C9.51618 3.15789 9.46732 3.14275 9.41886 3.12763C9.40101 3.1221 9.38066 3.11487 9.36909 3.10194C9.35118 3.08183 9.32895 3.07274 9.30511 3.06374C9.22738 3.03406 9.15372 2.99704 9.09381 2.93945C9.02804 2.87646 9.01228 2.79855 9.02628 2.7125C9.03953 2.63184 9.09567 2.59047 9.16884 2.56409C9.19426 2.55491 9.21971 2.54515 9.24578 2.53834C9.35369 2.51033 9.46073 2.47722 9.57014 2.45689C9.91519 2.3928 10.2611 2.33381 10.6066 2.27286C11.3339 2.14456 12.0626 2.02333 12.7949 1.92565C13.2868 1.86016 13.7788 1.79545 14.2717 1.73663C14.6297 1.69392 14.989 1.65983 15.348 1.62456C15.5275 1.60702 15.7074 1.59533 15.8873 1.58073C16.0719 1.56583 16.2563 1.54955 16.4411 1.53641C16.5573 1.52814 16.6738 1.52572 16.7901 1.51862C17.0369 1.50352 17.2837 1.48861 17.5303 1.47058C17.7264 1.45635 17.9224 1.46079 18.1189 1.46311C18.2081 1.46412 18.2985 1.46715 18.3866 1.45566C18.5412 1.43548 18.6956 1.44424 18.8502 1.44292C18.9315 1.4421 19.0128 1.44479 19.0941 1.44378C19.2426 1.44228 19.3912 1.43438 19.5395 1.43792C19.8301 1.44505 20.1203 1.45701 20.4108 1.46919C20.6581 1.47958 20.9052 1.49345 21.1525 1.50481C21.2992 1.51157 21.446 1.516 21.5928 1.52179C21.6678 1.52488 21.7428 1.52913 21.8177 1.53202C21.8315 1.53244 21.8455 1.529 21.8594 1.5273L21.8613 1.52663Z" stroke="white" stroke-width="0.4" mask="url(#path-1-outside-1_1279_11867)"/>
</svg>
